<svg xmlns="http://www.w3.org/2000/svg" viewBox="0 0 500 500"><g id="freepik--background-complete--inject-184"><line x1="128.57" y1="32.74" x2="128.57" style="fill:none;stroke:#c7c7c7;stroke-miterlimit:10"></line><polygon points="148.81 52.24 147.18 55.82 109.96 55.82 108.34 52.24 124.18 41.28 132.96 41.28 148.81 52.24" style="fill:#ebebeb"></polygon><polygon points="134.06 30.71 132.96 41.28 124.18 41.28 123.08 30.71 134.06 30.71" style="fill:#dbdbdb"></polygon><polygon points="148.8 52.25 147.18 55.82 109.96 55.82 108.34 52.25 148.8 52.25" style="fill:#dbdbdb"></polygon><line x1="209.52" y1="32.74" x2="209.52" style="fill:none;stroke:#c7c7c7;stroke-miterlimit:10"></line><polygon points="229.76 52.24 228.13 55.82 190.91 55.82 189.29 52.24 205.14 41.28 213.91 41.28 229.76 52.24" style="fill:#ebebeb"></polygon><polygon points="215.01 30.71 213.91 41.28 205.14 41.28 204.04 30.71 215.01 30.71" style="fill:#dbdbdb"></polygon><polygon points="229.75 52.25 228.13 55.82 190.91 55.82 189.29 52.25 229.75 52.25" style="fill:#dbdbdb"></polygon><line x1="290.48" y1="32.74" x2="290.48" style="fill:none;stroke:#c7c7c7;stroke-miterlimit:10"></line><polygon points="310.71 52.24 309.08 55.82 271.87 55.82 270.25 52.24 286.09 41.28 294.87 41.28 310.71 52.24" style="fill:#ebebeb"></polygon><polygon points="295.96 30.71 294.87 41.28 286.09 41.28 284.99 30.71 295.96 30.71" style="fill:#dbdbdb"></polygon><polygon points="310.71 52.25 309.08 55.82 271.87 55.82 270.24 52.25 310.71 52.25" style="fill:#dbdbdb"></polygon><line x1="371.43" y1="32.74" x2="371.43" style="fill:none;stroke:#c7c7c7;stroke-miterlimit:10"></line><polygon points="391.66 52.24 390.03 55.82 352.82 55.82 351.2 52.24 367.04 41.28 375.82 41.28 391.66 52.24" style="fill:#ebebeb"></polygon><polygon points="376.92 30.71 375.82 41.28 367.04 41.28 365.94 30.71 376.92 30.71" style="fill:#dbdbdb"></polygon><polygon points="391.66 52.25 390.03 55.82 352.82 55.82 351.19 52.25 391.66 52.25" style="fill:#dbdbdb"></polygon><path d="M82.59,249.56l-13.12.27-6.66.12c-2.23,0-4.47,0-6.7.05h-.44v-.44l-.06-11.19v-.51h.5l13.24.06c4.42,0,8.83.11,13.24.16h.28v.27c0,1.89-.09,3.78-.13,5.65Zm0,0-.14-5.66c0-1.86-.11-3.7-.13-5.53l.27.27c-4.41.05-8.82.16-13.24.16l-13.24.07.5-.5,0,11.19-.45-.45c2.18,0,4.36,0,6.55,0l6.58.12Z" style="fill:#ebebeb"></path><path d="M67.82,263.67l-13.12.27-6.66.12c-2.23,0-4.47,0-6.7.05H40.9v-.44l-.06-11.19V252h.5l13.24.06c4.41,0,8.83.11,13.24.16h.28v.27c0,1.89-.08,3.78-.13,5.65Zm0,0L67.68,258c-.05-1.86-.11-3.7-.13-5.53l.27.27c-4.41.05-8.83.16-13.24.16L41.34,253l.5-.49-.05,11.19-.45-.45c2.18,0,4.36,0,6.55,0l6.58.12Z" style="fill:#ebebeb"></path><path d="M458.66,263.67l-13.13.27-6.66.12c-2.22,0-4.46,0-6.69.05h-.45v-.44l-.05-11.19V252h.5l13.24.06c4.41,0,8.83.11,13.24.16h.27v.27c0,1.89-.08,3.78-.13,5.65Zm0,0-.14-5.66c0-1.86-.12-3.7-.13-5.53l.27.27c-4.41.05-8.83.16-13.24.16l-13.24.06.5-.49-.06,11.19-.44-.45c2.18,0,4.36,0,6.54,0l6.58.12Z" style="fill:#ebebeb"></path><path d="M443.89,65.2l-13.13.28-6.66.11c-2.22,0-4.46,0-6.69.06H417V65.2l0-11.19v-.5h.51l13.24.06c4.41,0,8.82.12,13.24.17h.27V54c0,1.9-.09,3.79-.13,5.65Zm0,0-.14-5.65c-.05-1.87-.12-3.71-.14-5.54l.28.27c-4.42,0-8.83.16-13.24.17l-13.24.06.5-.5-.06,11.19-.44-.45c2.18,0,4.35,0,6.54.06l6.58.11Z" style="fill:#ebebeb"></path><path d="M458.66,79.31l-13.13.28-6.66.11c-2.22,0-4.46,0-6.69.06h-.45v-.45l-.05-11.19v-.5h.5l13.24.06c4.41,0,8.83.12,13.24.17h.27v.27c0,1.9-.08,3.79-.13,5.65Zm0,0-.14-5.65c0-1.87-.12-3.71-.13-5.54l.27.27c-4.41,0-8.83.16-13.24.17l-13.24.06.5-.5-.06,11.19-.44-.45c2.18,0,4.36,0,6.54.06l6.58.11Z" style="fill:#ebebeb"></path><path d="M82.59,65.2l-13.12.28-6.66.11c-2.23,0-4.47,0-6.7.06h-.44V65.2L55.61,54v-.5h.5l13.24.06c4.42,0,8.83.12,13.24.17h.28V54c0,1.9-.09,3.79-.13,5.65Zm0,0-.14-5.65c0-1.87-.11-3.71-.13-5.54l.27.27c-4.41,0-8.82.16-13.24.17l-13.24.06.5-.5,0,11.19-.45-.45c2.18,0,4.36,0,6.55.06l6.58.11Z" style="fill:#ebebeb"></path><rect x="67.46" y="289.3" width="74.84" height="103.56" transform="translate(209.75 682.17) rotate(180)" style="fill:#ebebeb"></rect><rect x="63.83" y="285.46" width="82.09" height="3.84" transform="translate(209.75 574.76) rotate(180)" style="fill:#dbdbdb"></rect><rect x="38.02" y="285.46" width="25.82" height="3.84" transform="translate(101.85 574.76) rotate(180)" style="fill:#ebebeb"></rect><rect x="42.1" y="289.3" width="25.35" height="103.56" transform="translate(109.56 682.17) rotate(180)" style="fill:#dbdbdb"></rect><rect x="75.61" y="304.14" width="58.53" height="33" transform="translate(209.75 641.28) rotate(180)" style="fill:none;stroke:#c7c7c7;stroke-miterlimit:10;stroke-width:0.25px"></rect><rect x="101.64" y="313.75" width="11.43" height="6.57" transform="translate(214.71 634.06) rotate(180)" style="fill:#c7c7c7"></rect><rect x="98.26" y="314.24" width="11.43" height="5.58" transform="translate(207.95 634.06) rotate(180)" style="fill:none;stroke:#c7c7c7;stroke-miterlimit:10;stroke-width:0.25px"></rect><rect x="75.61" y="345.83" width="58.53" height="33" transform="translate(209.75 724.67) rotate(180)" style="fill:none;stroke:#c7c7c7;stroke-miterlimit:10;stroke-width:0.25px"></rect><rect x="101.64" y="355.44" width="11.43" height="6.57" transform="translate(214.71 717.45) rotate(180)" style="fill:#c7c7c7"></rect><rect x="98.26" y="355.93" width="11.43" height="5.58" transform="translate(207.95 717.45) rotate(180)" style="fill:none;stroke:#c7c7c7;stroke-miterlimit:10;stroke-width:0.25px"></rect></g><g id="freepik--Shadow--inject-184"><ellipse cx="250" cy="445.18" rx="203" ry="23.07" style="fill:#ebebeb"></ellipse></g><g id="freepik--Floor--inject-184"><polygon points="36.47 392.86 89.85 392.62 143.23 392.53 250 392.37 356.77 392.53 410.15 392.62 463.53 392.86 410.15 393.11 356.77 393.2 250 393.36 143.23 393.19 89.85 393.11 36.47 392.86" style="fill:#263238"></polygon></g><g id="freepik--Puzzle--inject-184"><path d="M218.46,185.76h23a4.4,4.4,0,0,1,4.4,4.41h0a4.48,4.48,0,0,1-1.71,3.47,9.18,9.18,0,1,0,11.64,0,4.51,4.51,0,0,1-1.71-3.47h0a4.4,4.4,0,0,1,4.4-4.41h23v23a4.4,4.4,0,0,0,4.4,4.41h0a4.51,4.51,0,0,0,3.47-1.71,9.19,9.19,0,1,1,0,11.63,4.5,4.5,0,0,0-3.47-1.7h0a4.4,4.4,0,0,0-4.4,4.4v23h-23a4.4,4.4,0,0,1-4.4-4.4h0a4.54,4.54,0,0,1,1.71-3.48,9.18,9.18,0,1,0-11.64,0,4.51,4.51,0,0,1,1.71,3.48h0a4.4,4.4,0,0,1-4.4,4.4h-23v-23a4.4,4.4,0,0,0-4.4-4.4h0a4.5,4.5,0,0,0-3.48,1.7,9.18,9.18,0,1,1,0-11.63,4.51,4.51,0,0,0,3.48,1.71h0a4.4,4.4,0,0,0,4.4-4.41Z" style="fill:#259F88"></path><path d="M281.55,122.67h23a4.41,4.41,0,0,1,4.4,4.41h0a4.48,4.48,0,0,1-1.71,3.47,9.18,9.18,0,1,0,11.64,0,4.48,4.48,0,0,1-1.71-3.47h0a4.41,4.41,0,0,1,4.4-4.41h23v23a4.4,4.4,0,0,0,4.41,4.4h0a4.51,4.51,0,0,0,3.47-1.71,9.18,9.18,0,1,1,0,11.64,4.48,4.48,0,0,0-3.47-1.71h0a4.4,4.4,0,0,0-4.41,4.4v23h-23a4.4,4.4,0,0,1-4.4-4.4h0a4.48,4.48,0,0,1,1.71-3.47,9.18,9.18,0,1,0-11.64,0,4.48,4.48,0,0,1,1.71,3.47h0a4.4,4.4,0,0,1-4.4,4.4h-23v-23a4.41,4.41,0,0,0-4.41-4.4h0a4.48,4.48,0,0,0-3.47,1.71,9.18,9.18,0,1,1,0-11.64,4.51,4.51,0,0,0,3.47,1.71h0a4.41,4.41,0,0,0,4.41-4.4Z" style="fill:#259F88"></path><path d="M370,186.43a116.63,116.63,0,0,1-25.67,37.74,4.53,4.53,0,0,0-1-1.47,4.44,4.44,0,0,0-3.12-1.28,4.53,4.53,0,0,0-3.48,1.7,9.19,9.19,0,1,1,0-11.63,4.54,4.54,0,0,0,3.48,1.71,4.42,4.42,0,0,0,4.41-4.4v-23h23a4.19,4.19,0,0,1,.5,0,3.49,3.49,0,0,1,.73.14l.32.12.24.09A5.36,5.36,0,0,1,370,186.43Z" style="fill:#259F88"></path><path d="M257.37,154.22A9.18,9.18,0,0,0,273.66,160a4.55,4.55,0,0,1,3.49-1.7,4.4,4.4,0,0,1,4.4,4.41v23h-23a4.4,4.4,0,0,0-4.41,4.4,4.5,4.5,0,0,0,1.7,3.47,9.18,9.18,0,1,1-11.63,0,4.51,4.51,0,0,0,1.71-3.47,4.4,4.4,0,0,0-4.4-4.4h-23v-23a4.4,4.4,0,0,1,4.4-4.41,4.5,4.5,0,0,1,3.47,1.7,9.18,9.18,0,1,0,0-11.63,4.51,4.51,0,0,1-3.47,1.71,4.4,4.4,0,0,1-4.4-4.4v-23h23a4,4,0,0,0,.85-.09c5.07,11.35,7.65,21.85,7.65,27.8,0-6,2.59-16.46,7.64-27.81h0a3.65,3.65,0,0,0,.88.1h23v23a4.41,4.41,0,0,1-4.4,4.4,4.56,4.56,0,0,1-3.49-1.71,9.19,9.19,0,0,0-16.29,5.82Z" style="fill:#455a64"></path><path d="M370,186.43a5.36,5.36,0,0,0-.53-.28l-.24-.09-.32-.12a3.62,3.62,0,0,0-.73-.14,4.19,4.19,0,0,0-.5,0h-23v-23a4.4,4.4,0,0,1,4.4-4.41,4.51,4.51,0,0,1,3.47,1.7,9.18,9.18,0,1,0,0-11.63,4.52,4.52,0,0,1-3.47,1.71,4.4,4.4,0,0,1-4.4-4.4v-23h23a4.21,4.21,0,0,0,1.7-.36,3.6,3.6,0,0,0,.75-.4,5,5,0,0,0,.66-.54l.76-1a4.25,4.25,0,0,0,.33-.79l.2-1.3a4.53,4.53,0,0,0-1.71-3.48l-.37-.32c-.13-.11-.25-.23-.37-.35a9.18,9.18,0,0,1-1.79-10.27C381.36,126.26,382.17,157.58,370,186.43Z" style="fill:#455a64"></path><path d="M194.28,217.31a9.19,9.19,0,0,0,16.3,5.81,4.52,4.52,0,0,1,3.48-1.7,4.4,4.4,0,0,1,3.11,1.28,4.45,4.45,0,0,1,1.29,3.12v23h-23a4.4,4.4,0,0,0-4.4,4.4,4,4,0,0,0,.09.85c-10-7.94-20.41-16.49-30.35-25.21-1.76-1.53-3.46-3.12-5.09-4.73l0-.07a4.83,4.83,0,0,1,.41-.74,3.8,3.8,0,0,1,.54-.66,4.37,4.37,0,0,1,3.11-1.28,4.51,4.51,0,0,1,3.47,1.7,9.19,9.19,0,0,0,14.47-.32,8.87,8.87,0,0,0,.72-1.12,10.23,10.23,0,0,0,.47-1,9.14,9.14,0,0,0,0-6.72,8.46,8.46,0,0,0-.47-1,8.31,8.31,0,0,0-.72-1.13,9.19,9.19,0,0,0-14.47-.32,4.52,4.52,0,0,1-3.47,1.71,4.37,4.37,0,0,1-3.11-1.29,3.8,3.8,0,0,1-.54-.66,4.83,4.83,0,0,1-.41-.74,4.42,4.42,0,0,1-.34-1.71v-23h23a4.41,4.41,0,0,0,4.4-4.41,4.54,4.54,0,0,0-1.71-3.48,9.18,9.18,0,1,1,11.64,0,4.5,4.5,0,0,0-1.7,3.48,4.41,4.41,0,0,0,1.29,3.12,4.35,4.35,0,0,0,3.11,1.29h23v23a4.41,4.41,0,0,1-4.4,4.4,4.53,4.53,0,0,1-3.48-1.71,9.19,9.19,0,0,0-16.3,5.82Z" style="fill:#263238"></path><path d="M242.63,280.4a9.18,9.18,0,0,1-5.34,8.34c-11-7.84-28-20.24-46.17-34.63a4,4,0,0,1-.09-.85,4.38,4.38,0,0,1,1.29-3.11h0a4.31,4.31,0,0,1,3.11-1.29h23v23a4.4,4.4,0,0,0,1.29,3.11,4.35,4.35,0,0,0,3.11,1.29,4.51,4.51,0,0,0,3.47-1.71,9.19,9.19,0,0,1,16.3,5.82Z" style="fill:#259F88"></path><path d="M309,253.26a4.38,4.38,0,0,1-.08.82h0c-18.17,14.38-35.16,26.79-46.18,34.64a9.93,9.93,0,0,1-.91-.49,3.37,3.37,0,0,1-.37-.24,8.47,8.47,0,0,1-1.66-1.44,3.18,3.18,0,0,1-.3-.33,10.25,10.25,0,0,1-.62-.85c-.11-.18-.23-.36-.32-.53l0-.07a4.66,4.66,0,0,1-.25-.5,3.76,3.76,0,0,1-.23-.55,5,5,0,0,1-.26-.74,5.47,5.47,0,0,1-.15-.58,6.18,6.18,0,0,1-.12-.62c0-.15,0-.3-.05-.46a1.81,1.81,0,0,1,0-.4,4.78,4.78,0,0,1,0-.53,9.18,9.18,0,0,1,16.29-5.82,4.56,4.56,0,0,0,3.49,1.71,4.41,4.41,0,0,0,4.4-4.4v-23h23a4.34,4.34,0,0,1,3.11,1.3A4.37,4.37,0,0,1,309,253.26Z" style="fill:#259F88"></path><path d="M281.55,248.85v23a4.41,4.41,0,0,1-4.4,4.4,4.56,4.56,0,0,1-3.49-1.71,9.18,9.18,0,0,0-16.29,5.82,4.78,4.78,0,0,0,0,.53,1.81,1.81,0,0,0,0,.4c0,.16,0,.31.05.46a5.67,5.67,0,0,0,.12.62,5.47,5.47,0,0,0,.15.58,5,5,0,0,0,.26.74,3.76,3.76,0,0,0,.23.55,4.66,4.66,0,0,0,.25.5l0,.07c.09.17.21.35.32.53a10.25,10.25,0,0,0,.62.85,3.18,3.18,0,0,0,.3.33,8.47,8.47,0,0,0,1.66,1.44,3.37,3.37,0,0,0,.37.24,9.93,9.93,0,0,0,.91.49c-7.9,5.62-12.72,8.9-12.72,8.9s-4.82-3.27-12.7-8.89a9.19,9.19,0,1,0-11-14.16,4.51,4.51,0,0,1-3.47,1.71,4.35,4.35,0,0,1-3.11-1.29,4.4,4.4,0,0,1-1.29-3.11v-23h23a4.52,4.52,0,0,0,1.72-.35,4.78,4.78,0,0,0,.74-.4,5.64,5.64,0,0,0,.65-.54,4.37,4.37,0,0,0,1.29-3.11,4.53,4.53,0,0,0-1.71-3.48,9.18,9.18,0,1,1,11.64,0,4.5,4.5,0,0,0-1.71,3.48,4.44,4.44,0,0,0,1.94,3.65,4.88,4.88,0,0,0,.75.4,4.44,4.44,0,0,0,1.72.35Z" style="fill:#455a64"></path><path d="M179.53,217.31a9.38,9.38,0,0,1-.63,3.36,10.23,10.23,0,0,1-.47,1,11.86,11.86,0,0,1-.72,1.12,9.19,9.19,0,0,1-14.47.32,4.51,4.51,0,0,0-3.47-1.7,4.37,4.37,0,0,0-3.11,1.28h0a3.74,3.74,0,0,0-.53.66,3.57,3.57,0,0,0-.41.74l0,.07A116.48,116.48,0,0,1,130,186.43a3.78,3.78,0,0,1,.53-.28,4.13,4.13,0,0,1,.92-.3l.38,0a3.91,3.91,0,0,1,.49,0h23v23a4.25,4.25,0,0,0,.35,1.71,3.57,3.57,0,0,0,.41.74,3.8,3.8,0,0,0,.54.66,4.37,4.37,0,0,0,3.11,1.29,4.52,4.52,0,0,0,3.47-1.71,9.19,9.19,0,0,1,14.47.32,10.85,10.85,0,0,1,.72,1.13,8.46,8.46,0,0,1,.47,1A9.33,9.33,0,0,1,179.53,217.31Z" style="fill:#259F88"></path><path d="M131.19,154.22a9.18,9.18,0,0,0,9.19,9.18h0l.61,0h.08l.36,0,.54-.07.49-.11.24-.06a6.29,6.29,0,0,0,.74-.22l.48-.19c.26-.11.52-.23.78-.37l.55-.32.24-.16a9.56,9.56,0,0,0,1.31-1.07,7.72,7.72,0,0,0,.67-.74,4.21,4.21,0,0,1,.36-.37,4.72,4.72,0,0,1,.41-.37c.12-.09.24-.18.37-.26l.38-.23.05,0,.38-.15.14-.06.23-.07.3-.07a1.93,1.93,0,0,1,.36-.06,4.19,4.19,0,0,1,.5,0,4.31,4.31,0,0,1,3.11,1.29,4.39,4.39,0,0,1,1.29,3.12v23h-23a3.91,3.91,0,0,0-.49,0l-.38,0a4.13,4.13,0,0,0-.92.3,3.78,3.78,0,0,0-.53.28c-12.18-28.85-11.36-60.17,2.15-82.58a9.18,9.18,0,0,1-1.79,10.27c-.11.12-.24.24-.36.35l-.38.32a4.52,4.52,0,0,0-1.7,3.48,4.31,4.31,0,0,0,.2,1.3,3.66,3.66,0,0,0,.33.79,4.75,4.75,0,0,0,.76,1h0a4.84,4.84,0,0,0,.65.53,3.6,3.6,0,0,0,.75.4,4.22,4.22,0,0,0,1.71.36h23v23a4.4,4.4,0,0,1-4.4,4.4l-.41,0a1.13,1.13,0,0,1-.31-.06h-.09l-.23-.05a5.85,5.85,0,0,1-2.08-1.19,4.35,4.35,0,0,1-.36-.38,7.72,7.72,0,0,0-.67-.74,10.73,10.73,0,0,0-1.35-1.09l-.46-.29a9.18,9.18,0,0,0-1-.5l-.51-.2-.05,0-.8-.24a3.43,3.43,0,0,0-.44-.09l-.77-.13-.36,0c-.23,0-.45,0-.69,0h0A9.18,9.18,0,0,0,131.19,154.22Z" style="fill:#455a64"></path><path d="M242.33,122.58a3.86,3.86,0,0,1-.84.09h-23v-23a4.39,4.39,0,0,0-1.29-3.11,4.33,4.33,0,0,0-3.11-1.29,4.52,4.52,0,0,0-3.48,1.7,9.18,9.18,0,1,1,0-11.64A4.53,4.53,0,0,0,214.06,87a4.33,4.33,0,0,0,2.13-.55C227.91,96.1,236.68,109.88,242.33,122.58Z" style="fill:#259F88"></path><path d="M305.72,91.13a9.19,9.19,0,0,1-16.3,5.81,4.5,4.5,0,0,0-3.47-1.7,4.39,4.39,0,0,0-4.4,4.4v23h-23a3.65,3.65,0,0,1-.88-.1c5.66-12.7,14.43-26.47,26.16-36.12A4.33,4.33,0,0,0,286,87a4.51,4.51,0,0,0,3.47-1.71,9.19,9.19,0,0,1,16.3,5.83Z" style="fill:#259F88"></path><path d="M372.07,118.27l-.2,1.3a4.25,4.25,0,0,1-.33.79l-.76,1a5,5,0,0,1-.66.54,4.88,4.88,0,0,1-.75.4,4.38,4.38,0,0,1-1.7.35h-23v-23a4.4,4.4,0,0,0-4.41-4.4,4.53,4.53,0,0,0-3.48,1.7,9.18,9.18,0,1,1,0-11.64A4.54,4.54,0,0,0,340.23,87a4.41,4.41,0,0,0,4.41-4.4V81.48a61.27,61.27,0,0,1,23.19,22.37,9.18,9.18,0,0,0,1.79,10.27c.12.12.24.24.37.35l.37.32A4.53,4.53,0,0,1,372.07,118.27Z" style="fill:#259F88"></path><path d="M192.32,124a4.33,4.33,0,0,0-1.29,3.1,4.7,4.7,0,0,0,1.33,3.13,3,3,0,0,0,.37.34,8.06,8.06,0,0,1,.74.69,9.1,9.1,0,0,1,2.62,6.42,9.22,9.22,0,0,1-2.68,6.5,9.12,9.12,0,0,1-2.92,2,9.24,9.24,0,0,1-7.15,0,9.17,9.17,0,0,1-3-14.89,4,4,0,0,1,.35-.36l.37-.33a3.07,3.07,0,0,0,.38-.34,4.43,4.43,0,0,0,1.33-3.13,4.34,4.34,0,0,0-1.29-3.1h0a4.35,4.35,0,0,0-3.11-1.29h-23v-23a4.43,4.43,0,0,1,.34-1.72,5.46,5.46,0,0,1,.41-.75,3.66,3.66,0,0,1,.54-.64,4.34,4.34,0,0,1,3.11-1.29,4.51,4.51,0,0,1,3.47,1.7,9.2,9.2,0,0,0,14.47-.32,8.21,8.21,0,0,0,.72-1.12,9.18,9.18,0,0,0,0-8.75,8.31,8.31,0,0,0-.72-1.13,9.2,9.2,0,0,0-14.47-.32A4.52,4.52,0,0,1,159.77,87a4.37,4.37,0,0,1-3.11-1.29,4.14,4.14,0,0,1-.54-.65,5.46,5.46,0,0,1-.41-.75,4.46,4.46,0,0,1-.34-1.71V81.48a64.47,64.47,0,0,1,12.68-5.27c19.36-5.78,35.47-.19,48.14,10.25a4.33,4.33,0,0,1-2.13.55,4.53,4.53,0,0,1-3.48-1.71,9.18,9.18,0,1,0,0,11.64,4.52,4.52,0,0,1,3.48-1.7,4.33,4.33,0,0,1,3.11,1.29,4.39,4.39,0,0,1,1.29,3.11v23h-23A4.34,4.34,0,0,0,192.32,124Z" style="fill:#37474f"></path><path d="M320.46,91.13a9.19,9.19,0,0,0,16.29,5.81,4.53,4.53,0,0,1,3.48-1.7,4.4,4.4,0,0,1,4.41,4.4v23h-23a4.38,4.38,0,0,0-3.12,1.3,4.33,4.33,0,0,0-1.29,3.1,4.7,4.7,0,0,0,1.33,3.13,3,3,0,0,0,.37.34,8.06,8.06,0,0,1,.74.69,9.11,9.11,0,0,1,2.63,6.42,9.22,9.22,0,0,1-2.68,6.5,9.12,9.12,0,0,1-2.92,2,9.24,9.24,0,0,1-7.15,0,9.19,9.19,0,0,1-3-14.89,8.06,8.06,0,0,1,.74-.69,3.07,3.07,0,0,0,.38-.34,4.43,4.43,0,0,0,1.33-3.13,4.34,4.34,0,0,0-1.29-3.1h0a4.35,4.35,0,0,0-3.11-1.29h-23v-23a4.39,4.39,0,0,1,4.4-4.4,4.5,4.5,0,0,1,3.47,1.7,9.18,9.18,0,1,0,0-11.64A4.51,4.51,0,0,1,286,87a4.33,4.33,0,0,1-2.15-.56C296.46,76,312.58,70.43,332,76.21a64.81,64.81,0,0,1,12.69,5.27v1.13a4.41,4.41,0,0,1-4.41,4.4,4.54,4.54,0,0,1-3.48-1.71,9.19,9.19,0,0,0-16.29,5.83Z" style="fill:#263238"></path><path d="M179.53,91.13a9.2,9.2,0,0,1-1.1,4.37,10.7,10.7,0,0,1-.72,1.12,9.2,9.2,0,0,1-14.47.32,4.51,4.51,0,0,0-3.47-1.7,4.34,4.34,0,0,0-3.11,1.29h0a3.61,3.61,0,0,0-.53.64,3.92,3.92,0,0,0-.41.75,4.26,4.26,0,0,0-.35,1.72v23h-23a4.39,4.39,0,0,1-1.71-.35,4.18,4.18,0,0,1-1.4-.94,4.75,4.75,0,0,1-.76-1,3.66,3.66,0,0,1-.33-.79,4.31,4.31,0,0,1-.2-1.3,4.52,4.52,0,0,1,1.7-3.48l.38-.32c.12-.11.25-.23.36-.35a9.18,9.18,0,0,0,1.79-10.27,61.37,61.37,0,0,1,23.2-22.37v1.13a4.29,4.29,0,0,0,.35,1.71,3.92,3.92,0,0,0,.41.75,3.39,3.39,0,0,0,.54.65A4.37,4.37,0,0,0,159.77,87a4.52,4.52,0,0,0,3.47-1.71,9.2,9.2,0,0,1,14.47.32,10.85,10.85,0,0,1,.72,1.13A9.21,9.21,0,0,1,179.53,91.13Z" style="fill:#259F88"></path></g><g id="freepik--Plants--inject-184"><path d="M342.16,369.63c-3.33.11-7.06.3-9.82-1.86-2.55-2-4.82-5-4.49-8.39.1-1,.33-1.57,1.37-1.16,1.59.64,2.82,2.39,3.92,3.62a33.74,33.74,0,0,0,4.63,4.39c1.18.91,2.46,1.7,3.67,2.58l.46.34.17.12h.09a.16.16,0,0,1,.14.07l0,.06A.18.18,0,0,1,342.16,369.63Z" style="fill:#259F88"></path><path d="M342.33,369.41c-2.94-.05-6.1.08-8.45-1.91a13.78,13.78,0,0,1-2.72-3.31c-.34-.55-1.35-2.2-.93-2.85.76-1.19,4.25,3.64,4.74,4.11a14.28,14.28,0,0,0,6.47,3.36l.46.34a16.28,16.28,0,0,1-4.87-1.87c-2.08-1.24-3.24-3.08-4.86-4.79-.36-.37-1.42-1.62-1.82-.84-.26.51.72,2.12.93,2.46a13.48,13.48,0,0,0,2.58,3.15c2.33,2,5.49,2,8.44,2.09Z" style="fill:#fff"></path><path d="M344,371.66c0,.13-.05.26-.08.39h0a.11.11,0,0,1-.06.07.16.16,0,0,1-.18-.07.11.11,0,0,1,0-.08s0,0,0-.05l0-.12h0a0,0,0,0,1,0,0c-.6-2.21-.83-4.51-1.45-6.71s-1.33-4.18-1.76-6.33c-.27-1.36-1.21-8.16,1.79-7.31,1.33.37,2.24,2.3,2.74,3.45a13.71,13.71,0,0,1,1.1,4.89C346.36,363.91,344.84,367.68,344,371.66Z" style="fill:#259F88"></path><path d="M345,363.19a16.32,16.32,0,0,0-.48-4.62c-.13-.52-.79-3-1.63-3-.55,0-.64,1.11-.69,1.47a14.55,14.55,0,0,0,.59,4.53,63.38,63.38,0,0,1,1.11,9.09c0,.2-.06.39-.08.58s0,.32-.06.48l0,.17s0,.08,0,.13a.16.16,0,0,0,.18.07c0-.13,0-.25.05-.38,0,.11,0,.21,0,.31h0l.06-.32a.64.64,0,0,0,0-.07c0-.17,0-.34,0-.51A69.17,69.17,0,0,0,345,363.19Zm-1,6.87c-.08-1.79-.26-3.56-.51-5.33-.21-1.43-.47-2.84-.77-4.25a15,15,0,0,1-.39-2.41c0-.62.07-2.91,1.25-1.49.85,1,1.06,3.23,1.16,4.5a22.91,22.91,0,0,1-.08,4.22C344.45,366.89,344.19,368.48,344,370.06Z" style="fill:#fff"></path><path d="M345.8,380.81h0a.43.43,0,0,1-.13,0c-3.05-.15-7.11.13-9.65-1.89-1.87-1.49-3.71-4.43-3.12-6.93.67-2.82,4.48.56,5.49,1.38a93.6,93.6,0,0,1,7.47,7.27l0,0h0S345.87,380.8,345.8,380.81Z" style="fill:#259F88"></path><path d="M345.9,380.73l-.52-.33c-2-1.27-4-2.62-5.84-4.06-.48-.36-3.91-3.42-4.43-2.33-.31.67.82,2,1.19,2.47a9.26,9.26,0,0,0,2.31,2.06c2,1.27,4.5,1.54,6.8,2.15l.33.09.05,0h0C345.87,380.8,345.93,380.77,345.9,380.73Zm-6-1.74a9.61,9.61,0,0,1-2.63-1.78c-.52-.49-2.32-2.31-1.84-3.06.25-.4.47-.19,1,.05.22.11.44.24.65.37.51.34,1,.73,1.46,1.11q1.25,1,2.55,1.95c1.42,1,2.88,2,4.37,2.93A45.83,45.83,0,0,1,339.87,379Z" style="fill:#fff"></path><path d="M351.37,374.53a18.07,18.07,0,0,1-5.23,9.13l-.06,0a.12.12,0,0,1-.15-.05.14.14,0,0,1,0-.18l.16-.15c.5-4.15,1.06-8.27,1.49-12.43.1-1,.86-7.22,2.78-6.2,1.18.62,1.26,3.18,1.36,4.33A18,18,0,0,1,351.37,374.53Z" style="fill:#259F88"></path><path d="M350.26,369c-.1-.34-.28-.7-.67-.46-.75.47-1,3.4-1.16,4.21-.52,3.35-1.31,6.56-2.11,9.84l-.21.83-.18.25a.13.13,0,0,0,.15.05l0-.08.25-.33h0a21.42,21.42,0,0,0,3-5.88,20.7,20.7,0,0,0,.89-4.1A11.84,11.84,0,0,0,350.26,369Zm-3.91,14.08-.12.16c0-.11.08-.22.11-.33a60.73,60.73,0,0,0,1.86-7.61c.23-1.31.37-2.63.63-3.93.12-.55.39-2.11.84-2.37s.45.36.49.71,0,.71,0,.95A21.05,21.05,0,0,1,346.35,383.05Z" style="fill:#fff"></path><path d="M346.65,392.6H346c0-.53,0-1.07,0-1.6-.07-2.17-.16-4.34-.29-6.5-.07-1.24-.16-2.47-.29-3.68,0,0,0-.08,0-.13l0-.29c0-.11,0-.22-.05-.33a26.33,26.33,0,0,0-2.09-8c-.39-.84-.81-1.66-1.26-2.48a1.71,1.71,0,0,0-.13-.23l0-.07c0-.08-.09-.16-.14-.24a1.62,1.62,0,0,0-.1-.18c-1.41-2.48-3-4.85-4.56-7.24l-1.3-2.06a.57.57,0,0,1-.08-.13.56.56,0,0,1-.1-.15c-1.92-3-3.82-6.09-5.81-9.07-.08-.11.1-.21.17-.1,1.35,2,2.75,3.92,4.14,5.88l.55.78c.37.51.73,1,1.09,1.54.72,1,1.44,2.07,2.14,3.12a88,88,0,0,1,5.61,9.09c.12.23.23.47.35.71s.14.3.2.45.16.35.24.53a28,28,0,0,1,2.06,9.6c0,.23,0,.46,0,.7s0,.21,0,.32a1,1,0,0,0,0,.17,1.7,1.7,0,0,0,0,.22h0v.16c0,.2,0,.39,0,.6.09,2.16.14,4.33.19,6.49C346.6,391.22,346.62,391.91,346.65,392.6Z" style="fill:#259F88"></path><path d="M328.44,353.35c-1.67-2.24-3.81-6.87-1.35-9.28a2.62,2.62,0,0,1,3.49-.26c1.3.94,1.88,2.72,2.31,4.19,1.12,3.93,1.87,7.93,3.28,11.78,0,0,.12.33.15.41s-.1.12-.13,0-.09-.25-.14-.38C333.4,357.92,330.42,356,328.44,353.35Z" style="fill:#259F88"></path><path d="M336.19,359.79a.25.25,0,0,0,0-.07,28,28,0,0,1-1.56-2.9,55.88,55.88,0,0,1-2.4-6.44c-.27-.84-1.47-5-2.94-3.32a3.75,3.75,0,0,0-.44,2.77,10.25,10.25,0,0,0,1.29,3.86,18.78,18.78,0,0,0,5.54,5.79l.29.23.07.1a.25.25,0,0,0,0,.07l0,0a.1.1,0,0,0,.13-.06A0,0,0,0,0,336.19,359.79Zm-.65-.46a22.1,22.1,0,0,1-4.7-4.71,11.75,11.75,0,0,1-1.53-3.12A10.06,10.06,0,0,1,329,350a7.53,7.53,0,0,1-.07-1.16c0-.85.38-1.77.88-1.86s.83.25,1.24,1a6.47,6.47,0,0,1,.36.75,18.84,18.84,0,0,1,.7,1.95c.34,1.09.69,2.18,1.09,3.25.26.73.55,1.46.86,2.17a28.35,28.35,0,0,0,1.83,3.55Z" style="fill:#fff"></path><path d="M159.25,359.63c-.28,2.23-.7,4.43-1.15,6.63-.26,1.24-.53,2.48-.78,3.73a9.21,9.21,0,0,0-.31,4.16h0a1.28,1.28,0,0,1,0,.19v0a.17.17,0,0,1-.29-.05l0-.09,0,0a6,6,0,0,1-.48-1.15,30.54,30.54,0,0,1-1.1-3.22A27.59,27.59,0,0,1,154,363a23.79,23.79,0,0,1,.65-6.18c.4-1.62,1-4,2.17-5.27s2,.68,2.31,1.58C159.85,355.15,159.51,357.52,159.25,359.63Z" style="fill:#259F88"></path><path d="M157.26,354.91c-.82,0-1.41,2.62-1.69,3.75a22.4,22.4,0,0,0-.7,5.46,29.36,29.36,0,0,0,1.68,9.7c0,.13.09.26.13.38l0,0,0,.09a.17.17,0,0,0,.29.05c-.05-.27-.09-.54-.13-.82s0-.49-.07-.73a38.62,38.62,0,0,1,.5-8C157.71,361.69,158.33,354.91,157.26,354.91Zm-.59,18.43c0,.36.1.72.17,1.07-.09-.26-.17-.51-.25-.77a32.83,32.83,0,0,1-1.53-8.56,23.55,23.55,0,0,1,.36-4.89,22.24,22.24,0,0,1,.63-2.56c.11-.35.7-2.55,1.21-2.44.35.08.43,2.06.44,2.1,0,.39,0,.79,0,1.19,0,.81-.07,1.63-.13,2.44-.16,1.76-.41,3.52-.62,5.28A30.48,30.48,0,0,0,156.67,373.34Z" style="fill:#fff"></path><path d="M172,365.78a21.13,21.13,0,0,1-6.59,7c-1.39,1-2.83,2-4.24,3a23.68,23.68,0,0,0-3.66,2.82l-.14.15a6.36,6.36,0,0,0-.76,1.05.08.08,0,0,1-.07,0,.5.5,0,0,1,0,.13s-.06,0-.05,0,0-.1,0-.14v0a.09.09,0,0,1,0-.11l0,0s0-.1,0-.15c.43-3.4,2.8-6.83,4.81-9.45a18.13,18.13,0,0,1,7.59-6.12c.78-.3,2.56-1.13,3.35-.49S172.35,365.16,172,365.78Z" style="fill:#259F88"></path><path d="M169.73,365.79c-.71-.71-2.79,1-3.32,1.45a36.3,36.3,0,0,0-4.31,4.19,31.21,31.21,0,0,0-5.51,8h0l-.07.09c0,.05,0,.1,0,.15l0,0a.09.09,0,0,0,0,.12.4.4,0,0,1,.1-.12c.26-.32.53-.63.81-.94l.14-.15a66.08,66.08,0,0,1,6.45-5.69,32,32,0,0,0,4.29-4.18C168.61,368.34,170.32,366.39,169.73,365.79Zm-.65,1.56c-1.76,2.92-4.81,5-7.39,7.17a35,35,0,0,0-4.91,4.66,33.19,33.19,0,0,1,5.09-7.17,47.6,47.6,0,0,1,3.5-3.6,17.45,17.45,0,0,1,2.13-1.7,7.12,7.12,0,0,1,1.44-.78C169.92,365.64,169.38,366.85,169.08,367.35Z" style="fill:#fff"></path><path d="M156.17,386.72a.21.21,0,0,1-.15.09l0,.05a0,0,0,0,1,0,.07.06.06,0,0,1-.08,0,29.57,29.57,0,0,1-6.78-9.92,15.76,15.76,0,0,1-1-4.89c0-1.14-.09-3.44.89-4.28,2-1.67,3.76,5.43,4,6.5.49,2,.81,4,1.26,5.91.49,2.15,1.14,4.25,1.78,6.36A.11.11,0,0,1,156.17,386.72Z" style="fill:#259F88"></path><path d="M156.17,386.72c-.11-.18-.21-.36-.31-.55a33,33,0,0,1-3.55-9.54,29.33,29.33,0,0,0-1.31-5c-.16-.4-.65-1.91-1.3-1.15-.33.4-.06,3.27.08,4a20.83,20.83,0,0,0,1.6,4.88,34.33,34.33,0,0,0,4.51,7.33,1.56,1.56,0,0,0,.16.2,0,0,0,0,0,0-.07l0-.05A.21.21,0,0,0,156.17,386.72Zm-4-6.11a25.1,25.1,0,0,1-1.89-4.73,16.88,16.88,0,0,1-.41-2,10.54,10.54,0,0,1-.14-1.58c0-1.3.12-1.64.33-1.68s.32.11.71.89a8.86,8.86,0,0,1,.55,1.57q.3,1.16.54,2.31c.34,1.55.65,3.11,1.1,4.62a25.7,25.7,0,0,0,2.74,6.21A39.53,39.53,0,0,1,152.17,380.61Z" style="fill:#fff"></path><path d="M165,379.91a9.66,9.66,0,0,1-1.8,3.75c-1.64,2.26-3.73,4.14-5.51,6.27-.27.32-.53.65-.78,1,0,0-.23.51-.23.47s0-.19.09-.49h0a40.22,40.22,0,0,1,2.4-8.32,20.06,20.06,0,0,1,2.61-4.08c.5-.57,1.69-1.81,2.59-1.54S165.14,379.19,165,379.91Z" style="fill:#259F88"></path><path d="M163.55,379c-1-.59-3.42,3.81-3.76,4.38a28.29,28.29,0,0,0-2.81,6.72c-.08.26-.14.53-.21.8s-.09.48-.09.49.2-.43.23-.47l.13-.17c.21-.28.43-.55.65-.8,1.07-1.61,2.17-3.2,3.21-4.82a26.51,26.51,0,0,0,2-3.67C163,381.17,164,379.25,163.55,379Zm-.28,1.24c-1.36,3.84-4.13,6.86-6.25,10.26l-.11.16a2.63,2.63,0,0,0,.09-.3,32.18,32.18,0,0,1,2.25-5.59,32.56,32.56,0,0,1,1.89-3.16,15.71,15.71,0,0,1,1.18-1.63c.2-.22.76-.8,1-.7S163.36,380,163.27,380.23Z" style="fill:#fff"></path><path d="M174.61,348.28c-2.84,6.53-10.3,9.57-13.54,15.87v0c-.1.19-.19.39-.28.59a.14.14,0,0,1-.22,0,.1.1,0,0,1,0-.11.91.91,0,0,1,.07-.14,33.79,33.79,0,0,1,4-11.43,17.24,17.24,0,0,1,7-7.41c.77-.39,2.26-1.22,3.11-.57S175,347.48,174.61,348.28Z" style="fill:#259F88"></path><path d="M172.05,348.56c-.36-.27-.91.06-1.22.22a11,11,0,0,0-2.16,1.47,18.5,18.5,0,0,0-3.44,4.09,37.4,37.4,0,0,0-4,8.22,20.34,20.34,0,0,0-.56,2l-.06.25a.14.14,0,0,0,.22,0,5.94,5.94,0,0,1,.27-.57s0,0,0-.05a22,22,0,0,1,2-3.72,51.36,51.36,0,0,1,4.25-5.05C167.93,354.74,173.3,349.48,172.05,348.56Zm-.46,1.51a24,24,0,0,1-3.37,4.09c-1.18,1.32-2.37,2.62-3.53,4a24.74,24.74,0,0,0-2.49,3.4,19.08,19.08,0,0,0-1.55,3.14,27.36,27.36,0,0,1,1.11-3.27l0,0a47.88,47.88,0,0,1,2.76-5.5l0-.06a22.71,22.71,0,0,1,3.15-4.39A12.43,12.43,0,0,1,170,349.5c.93-.6,1.75-1,2-.69S171.85,349.62,171.59,350.07Z" style="fill:#fff"></path><path d="M164.68,355.94c-.85,1.84-1.67,3.7-2.48,5.58-.38.88-.76,1.75-1.13,2.63,0,0,0,0,0,.05l-.41.95A58.86,58.86,0,0,0,157.3,374a26.76,26.76,0,0,0-.68,4.91l0,.51h0v.28a.76.76,0,0,0,0,.15c-.05,1.43,0,2.87,0,4.27,0,1.95.2,3.88.39,5.81a1,1,0,0,0,0,.17,2.46,2.46,0,0,1,0,.26s0,.09,0,.14a2.29,2.29,0,0,0,0,.25c.06.62.12,1.24.17,1.86h-.6a38,38,0,0,1-.71-5.75.45.45,0,0,1,0-.12c0-.18,0-.37,0-.56s0-.46,0-.69c0-.56,0-1.11-.05-1.66a41.39,41.39,0,0,1,.68-9.63,2.5,2.5,0,0,0,.07-.26.52.52,0,0,1,0-.11c0-.06,0-.12,0-.18l.08-.3.15-.52.05-.16a63.76,63.76,0,0,1,3.28-7.92l.66-1.4.37-.78.58-1.17,0,0c.91-1.84,1.86-3.65,2.76-5.5C164.58,355.78,164.72,355.85,164.68,355.94Z" style="fill:#259F88"></path></g><g id="freepik--character-2--inject-184"><path d="M372.86,394.21v38.23c0,7.3-.06,13.71-.42,17a.09.09,0,0,1,0,.05,5,5,0,0,1-.53,2.26.1.1,0,0,1,0,.05c-2.17,1.48-60.54,3.48-62.6,2.86s-.47-6.53,1.73-8.42,24.23-12.64,24.23-12.64l.36-38.19Z" style="fill: rgb(247, 169, 160);"></path><path d="M372.86,424.59v7.85c0,7.3-.06,13.71-.42,17a.09.09,0,0,1,0,.05,9.78,9.78,0,0,1-.53,2.26.1.1,0,0,1,0,.05c-2.17,1.48-60.54,3.48-62.6,2.86s-.47-6.53,1.73-8.42,24.23-12.64,24.23-12.64l-.11-8Z" style="fill:#fff"></path><path d="M309.26,454.68c2.06.62,60.43-1.38,62.6-2.86.84-.56,1-9.08,1-19.38v-.33l-37.67.87,0,.64s-22,10.76-24.22,12.65S307.19,454.08,309.26,454.68Z" style="fill:#259F88"></path><path d="M309.84,452.4c9.83-.58,49.54-2,59.3-1.81.08,0,.08.06,0,.06-9.73.79-49.45,1.87-59.29,1.91C309.64,452.56,309.63,452.41,309.84,452.4Z" style="fill:#263238"></path><path d="M332.05,433.84c3.85-.85,8.61-.42,11.66,2.24.12.1,0,.27-.16.23a54.89,54.89,0,0,0-11.46-2A.25.25,0,0,1,332.05,433.84Z" style="fill:#263238"></path><path d="M329.32,435.62c3.84-.85,8.6-.42,11.65,2.24.12.1,0,.27-.15.23a55.09,55.09,0,0,0-11.47-2A.25.25,0,0,1,329.32,435.62Z" style="fill:#263238"></path><path d="M326.58,437.4c3.85-.85,8.6-.42,11.65,2.24.12.1,0,.27-.15.23a55,55,0,0,0-11.47-2A.25.25,0,0,1,326.58,437.4Z" style="fill:#263238"></path><polygon points="374.75 366.74 374.74 367.17 373.9 434.05 333.04 433.23 341.43 229.33 375.94 229.33 374.75 366.74" style="fill:#263238"></polygon><path d="M334.74,424.92c6.38-.06,4.55-.13,10.93-.12,3.12,0,23.64.08,26.55.6.06,0,.06.12,0,.13-2.93.45-23.44,0-26.56,0-6.38-.14-4.54-.17-10.92-.38A.09.09,0,0,1,334.74,424.92Z" style="fill:#37474f"></path><path d="M367,403.74q.12-9.17.3-18.33.35-18.35.68-36.67.68-36.47,1.17-72.94c.21-13.72.2-27.44.56-41.15,0,0,.05,0,.05,0,.23,12.22.09,24.45.07,36.67s-.07,24.45-.19,36.67c-.24,24.32-.57,48.64-1.15,72.95-.16,6.86-.33,13.72-.56,20.57s-.39,13.73-.88,20.57c0,.1-.16.1-.16,0C366.73,416,366.88,409.85,367,403.74Z" style="fill:#37474f"></path><polygon points="375.94 229.75 375.03 333.86 347.36 229.34 375.93 229.34 375.94 229.75" style="fill:#37474f"></polygon><path d="M435.38,375.1s19.71,32,19.72,32.06c3.2,6.56,5.89,12.38,7,15.52a.43.43,0,0,1,0,.05,5.24,5.24,0,0,1,.51,2.26s0,.05,0,.06c-1.31,2.28-53.05,29.39-55.17,29.73s-3.25-5.68-2.08-8.34,16.34-21.9,16.34-21.9l-19.38-32.17Z" style="fill: rgb(247, 169, 160);"></path><path d="M462.62,425a.09.09,0,0,1,0,.05c-1.31,2.28-53,29.39-55.17,29.73s-3.25-5.68-2.09-8.34,16.35-21.9,16.35-21.9l-3.46-5.74c8.45-4.51,23.82-12.42,33.37-17.33,2.08,3.38,3.49,5.68,3.49,5.69,3.2,6.57,5.9,12.38,7,15.51a.14.14,0,0,1,0,.06A4.74,4.74,0,0,1,462.62,425Z" style="fill:#fff"></path><path d="M407.44,454.78c2.13-.33,53.86-27.45,55.17-29.73.51-.86-3-8.63-7.51-17.89-.05-.1-.1-.19-.14-.29L421.39,424l.31.56s-15.16,19.23-16.34,21.9S405.32,455.13,407.44,454.78Z" style="fill:#259F88"></path><path d="M407,452.47c8.6-4.78,43.77-23.27,52.65-27.34.07,0,.09,0,0,.05-8.43,4.93-43.75,23.13-52.61,27.43C406.86,452.7,406.79,452.57,407,452.47Z" style="fill:#263238"></path><path d="M419,426.12c3.09-2.44,7.56-4.11,11.47-3,.15,0,.09.25,0,.28a54.35,54.35,0,0,0-11.19,3.18A.24.24,0,0,1,419,426.12Z" style="fill:#263238"></path><path d="M417.25,428.91c3.1-2.44,7.57-4.11,11.47-3,.15,0,.09.25,0,.28a54.11,54.11,0,0,0-11.19,3.19A.25.25,0,0,1,417.25,428.91Z" style="fill:#263238"></path><path d="M415.56,431.7c3.09-2.44,7.57-4.11,11.47-3,.15,0,.09.25,0,.28a54.37,54.37,0,0,0-11.19,3.19A.25.25,0,0,1,415.56,431.7Z" style="fill:#263238"></path><path d="M345,229.3v0c.15.71,2.56,11.9,5.06,21.52,1.82,7,3.69,13.2,4.77,13.84s7.14,3.34,9.12,4.17c0,0,13.33,66.53,20.37,87.16,6.49,19,33.36,69.92,33.36,69.92l39-19.7s-30.44-51.64-33.64-60.9c-5-14.37-23.55-84.5-23.55-84.5s.14-22-7.25-31.55Z" style="fill:#263238"></path><path d="M416.45,417.48c5.57-3.12,3.92-2.3,9.53-5.35,2.74-1.49,20.77-11.28,23.57-12.22.06,0,.12.07.06.11-2.35,1.8-20.54,11.27-23.31,12.71-5.67,2.94-4.07,2-9.77,4.91C416.43,417.69,416.34,417.53,416.45,417.48Z" style="fill:#37474f"></path><path d="M389.43,254.74a33.33,33.33,0,0,0-3.3-.53c-.88-.14-1.75-.3-2.62-.49a11.46,11.46,0,0,1-4.63-1.95,11,11,0,0,1-3-4.67c-.43-1-.88-2-1.33-3-.22-.49-.44-1-.67-1.46s-.62-1.16-.82-1.75c0-.09-.17,0-.13,0a12.28,12.28,0,0,1,.37,1.26c.15.49.29,1,.44,1.47.27.87.53,1.75.82,2.61a20.84,20.84,0,0,0,1.86,4.59c1.61,2.57,4.48,3.6,7.36,4,.83.11,1.66.16,2.49.21a17.33,17.33,0,0,0,3.14,0A.14.14,0,0,0,389.43,254.74Z" style="fill:#37474f"></path><path d="M351.64,263.13a77,77,0,0,1,12.22,5.69.14.14,0,0,1-.12.25c-4.11-1.77-8.31-3.46-12.32-5.45A.27.27,0,0,1,351.64,263.13Z" style="fill:#37474f"></path><path d="M350.4,234.94c0-.14.26-.17.26,0,0,4.89.28,9.18.69,13.75.19,2.12,1.9,13.83,5.58,13,.61-.14.92-.75,1-1.68a14.3,14.3,0,0,0-.49-3.59c-.4-2.45-.73-4.91-.94-7.39a66.2,66.2,0,0,1,.15-13.86.12.12,0,1,1,.23,0A128.77,128.77,0,0,0,358,254.28c.46,3,2,7.63-1.19,8.1s-5.34-7.21-5.74-9.31A70.11,70.11,0,0,1,350.4,234.94Z" style="fill:#37474f"></path><path d="M356.83,262a18.62,18.62,0,0,1,.82,2.42,5.51,5.51,0,0,1,.35,2,.15.15,0,0,1-.26.05,6.89,6.89,0,0,1-.85-1.94c-.28-.75-.58-1.5-.83-2.25A.41.41,0,0,1,356.83,262Z" style="fill:#37474f"></path><path d="M446.1,399.79c-5.55-10.45-11.26-20.8-17-31.14-2.83-5.09-5.78-10.13-8.48-15.3a92.73,92.73,0,0,1-6.17-16q-5.15-16.72-9.75-33.62t-8.64-33.93c-.68-2.84-1.42-5.68-2-8.55a26.23,26.23,0,0,1,0-8.75,28.11,28.11,0,0,0,.07-8.14,54,54,0,0,0-1.91-8c-.43-1.38-.9-2.74-1.37-4.1a.13.13,0,0,0-.24.08c1.68,5.5,3.4,11.05,3,16.88-.17,2.8-.91,5.55-.87,8.36a40.1,40.1,0,0,0,1.42,8.27q4,17.13,8.54,34.13t9.65,33.82A131.23,131.23,0,0,0,418,350.09c2.35,5.22,5.33,10.15,8.13,15.14q8.68,15.45,17.6,30.77c.75,1.29,1.52,2.58,2.28,3.87C446,400,446.15,399.87,446.1,399.79Z" style="fill:#37474f"></path><path d="M363.32,178.69c-2.4,11.44-17.26,42.86-26.47,49.29-5.37,3.75-38.93,18.23-40.92,14.62-1.86-3.35-1.34-29.19-1.34-29.19,7.85-2.33,29.68-8.55,32.21-9,1.77-.29,13.8-14.83,26.63-29.5C360.54,166.82,364.75,171.87,363.32,178.69Z" style="fill: rgb(247, 169, 160);"></path><path d="M301.69,209.55l1.89,34.69s27.48-9.45,35.58-16.2,20.73-32.68,24.44-46.31-2.63-16.53-13.81-4.21c-9.21,10.13-21.39,24.49-23.05,25.27S301.69,209.55,301.69,209.55Z" style="fill:#259F88"></path><path d="M363.6,181.73c-3.71,13.63-16.35,39.57-24.44,46.31-4.29,3.58-14,7.91-22.23,11.2l-.22.08,46.17-68.57a3.83,3.83,0,0,1,.69.08C365,172.57,365.08,176.29,363.6,181.73Z" style="fill:#263238"></path><path d="M310.94,239.71c-.52-4.9-1.92-25-1.92-29.41,0-.3.19-.37.23-.06,1.91,14.65,1.62,24.61,1.88,29.45C311.14,239.81,311,239.84,310.94,239.71Z" style="fill:#263238"></path><path d="M401.59,248.23c-.15.16-64.1.06-64.68-.6-.81-.92,15-67,19.43-76.8,1.88-4.2,12.13-5.47,16.46-1.91,10.83,8.9,20,39.4,22.1,48.59C398.4,232.65,402.12,247.63,401.59,248.23Z" style="fill:#259F88"></path><path d="M356,171.89a0,0,0,0,1,.05,0c-.19,2.91-.43,9.63,4.12,9.23a9.66,9.66,0,0,0,4.91-2.42,26,26,0,0,0,3.87-3.91,37,37,0,0,0,3.6-5c0-.08.16,0,.11.08-1.08,1.77-2,3.61-3.24,5.28a21.94,21.94,0,0,1-4.17,4.33,9.61,9.61,0,0,1-5.22,2.36,3.66,3.66,0,0,1-3.73-2.77A16.32,16.32,0,0,1,356,171.89Z" style="fill:#263238"></path><path d="M334.16,238.34a9.15,9.15,0,0,0,17,2.4,4.52,4.52,0,0,1,3.05-2.36,4.42,4.42,0,0,1,3.3.63,4.19,4.19,0,0,1,1.24,1.24c-1.27,1.89-2.61,3.77-4,5.62-7.95,10.46-16.37,20.84-24.57,30.55a4.54,4.54,0,0,0-.08-.81,4.32,4.32,0,0,0-1.88-2.77,4.08,4.08,0,0,0-1.55-.64,4.25,4.25,0,0,0-1.74,0l-22.47,4.6L297.9,254.4a4.37,4.37,0,0,1,3.41-5.16,4.47,4.47,0,0,1,3.73,1,9.12,9.12,0,1,0-2.32-11.31,4.49,4.49,0,0,1-3.05,2.35,4.4,4.4,0,0,1-3.29-.63,4.35,4.35,0,0,1-1.88-2.77l-4.59-22.41,22.47-4.6a4.38,4.38,0,0,0,3.41-5.17,4.48,4.48,0,0,0-2.36-3,9.15,9.15,0,1,1,11.35-2.33,4.5,4.5,0,0,0-1,3.72,4.38,4.38,0,0,0,5.18,3.41l22.47-4.6,4.59,22.4a4.4,4.4,0,0,1-3.43,5.17,4.53,4.53,0,0,1-3.73-1,9.15,9.15,0,0,0-14.73,8.92Z" style="fill:#37474f"></path><path d="M289.34,205.27c-2.53,3.93-8.21,8.47-9.07,11.84a4,4,0,0,0,1.65,4.46s-3.63,1.26-3.91,4.44c-.14,1.64,2.35,3.3,2.35,3.3s-2.86,1.14-2.93,4c-.06,2.27,2.45,3.6,2.45,3.6s-2.25,2.37-1.56,4.7c1.39,4.72,20.69,7.24,24.6.51,1.82-3.13-2.92-3.49-2.92-3.49s6.95-1.13,7.57-5.1-5.58-4.06-5.58-4.06,6.73-1.15,7-5.33c.24-4.35-6-3.38-6-3.38s4.68-2.35,4.12-5.59c-.92-5.35-11.5-.18-15.61-1.74l.54-6.93Z" style="fill: rgb(247, 169, 160);"></path><path d="M285.1,210.88c2.07-3.93-.68-6.1.2-10.3,1-4.66,6.4-2.7,6.74,5.65l-.56,7.18Z" style="fill: rgb(247, 169, 160);"></path><path d="M280.24,237.16a0,0,0,1,0,0,.09,33.75,33.75,0,0,0,20,1.41c.21,0,.21-.42,0-.4A69.43,69.43,0,0,1,280.24,237.16Z" style="fill:#263238"></path><path d="M280.27,229.34a.07.07,0,0,0,0,.14c6.35,2.41,14.8,3,22,.18.24-.1.37-.43.08-.34C297.37,230.83,286.41,230.68,280.27,229.34Z" style="fill:#263238"></path><path d="M303.43,220.37c-7,2.44-14,2.4-21.25,1.31-.1,0-.11.12,0,.16,3.39,1.49,8.08,1.7,11.73,1.55a19.34,19.34,0,0,0,9.64-2.78C303.63,220.54,303.58,220.31,303.43,220.37Z" style="fill:#263238"></path><path d="M381,176.66c11.36,13.78,30.31,50.17,25.43,55.64-11.08,12.39-31.34,23.8-39.47,26.84-3.5,1.31-18.06-23.84-14.82-26.21,3.88-2.83,29.13-14.76,29.17-16s-6-18.86-8.53-32.8C369.59,166.81,376.22,170.92,381,176.66Z" style="fill: rgb(247, 169, 160);"></path><path d="M365,230.24s-11.12-2.47-18.47-3.74c-4.1-.71-11.24-1.3-14.49-.45-4.86,1.28-24.38,9.74-22.43,14.52,1.77,4.32,17.61-5.07,17.61-5.07s-16.82,8.07-13.74,12.88,19.57-8.18,19.57-8.18-17.1,8.68-13.14,13.14c3,3.37,18.6-7.56,18.6-7.56s-14.65,7.56-11.72,11.16c3.24,4,18.27-5.2,18.27-5.2,9,7.9,16.38,8.53,21.85,7.4C368.2,258.88,365,230.24,365,230.24Z" style="fill: rgb(247, 169, 160);"></path><path d="M332.09,232.74c-12.85,5-17.62,11.38-17.46,11.24,3.81-3.4,10.65-7.28,12.57-8.33s3-1.79,4.93-2.84C332.18,232.78,332.14,232.72,332.09,232.74Z" style="fill:#263238"></path><path d="M336.8,239.22a46.73,46.73,0,0,0-14.55,8c-.16.14-.06.17.13.06,2.41-1.4,12-6.74,14.45-8C336.87,239.26,336.84,239.21,336.8,239.22Z" style="fill:#263238"></path><path d="M341.23,244.52a34.85,34.85,0,0,0-11.08,6.54c-.17.14,0,.18.18.07,3.64-2.24,6.48-4,11-6.47C341.36,244.62,341.32,244.49,341.23,244.52Z" style="fill:#263238"></path><path d="M359.46,227.78l17.11,28.82s31-20,31.39-27.24c.61-10.17-20.87-46.49-27.21-53.58-6.18-6.91-10.44-6.07-9,3.84,1.27,9,8.26,36.19,8.2,36.58S359.46,227.78,359.46,227.78Z" style="fill:#259F88"></path><path d="M381.42,251.21c-2.65-4.15-12.9-21.54-14.85-25.45-.14-.27,0-.42.18-.16,8.25,12.25,12.44,21.3,14.83,25.5C381.64,251.21,381.49,251.32,381.42,251.21Z" style="fill:#263238"></path><path d="M373.16,187.25c0-.13-.24-.09-.22,0,.2,1.23.56,3.05,1,5.18l-.15-.35c-.36-.89-.68-1.78-.95-2.69a.08.08,0,1,0-.15,0c.26.93.54,1.86.86,2.77a17.71,17.71,0,0,0,.73,1.82c1.93,8.89,5,21.63,4.95,21.95-.09.52-16.57,9.53-19.93,11.59-.13.07.48.92.55,1.06a.09.09,0,0,0,.18-.05,4.63,4.63,0,0,0-.26-.74c3.19-1.6,20.05-11,20.35-11.46S374.19,191,373.16,187.25Z" style="fill:#263238"></path><path d="M400,239.31c-1,.6-10.24,8.15-11.23,8.84a.08.08,0,0,0,.08.13c3.87-1.93,10.29-7.47,11.2-8.9A0,0,0,0,0,400,239.31Z" style="fill:#263238"></path><path d="M360,178c3.27.33,8.72-5.74,10.34-10,.11-.29-.68-3.07-1.48-6.5-.48-2.09-1-4.42-1.25-6.58l-13.1,5.1a34.72,34.72,0,0,1,2.41,8.11,5.52,5.52,0,0,1,0,.9.74.74,0,0,0,0,.15C356.86,171,356.79,177.71,360,178Z" style="fill: rgb(247, 169, 160);"></path><path d="M358.31,169.14a8.85,8.85,0,0,1-1.4.11c0-.06,0-.11,0-.15a4.58,4.58,0,0,0,0-.9,35.06,35.06,0,0,0-2.41-8.12l12.68-4.93C367,158.3,365.9,168,358.31,169.14Z" style="fill:#263238"></path><path d="M370.94,142.56c.83,5-3.55,18.53-7.38,21.17-5.55,3.83-13.71,3.18-16.73-3.28-2.92-6.26,3.1-23.8,7.29-26.1C360.28,131,369.72,135.18,370.94,142.56Z" style="fill: rgb(247, 169, 160);"></path><path d="M355.74,149.56s.05.07,0,.11c-.32.9-.53,2,.2,2.56,0,0,0,.06,0,0C355,151.81,355.29,150.37,355.74,149.56Z" style="fill:#263238"></path><path d="M356.86,148.87c1.5.36.68,3.34-.72,3S355.59,148.57,356.86,148.87Z" style="fill:#263238"></path><path d="M350.63,148.1s-.09,0-.1.06c-.22.93-.64,2-1.56,2,0,0,0,.05,0,.06C350,150.39,350.56,149,350.63,148.1Z" style="fill:#263238"></path><path d="M350.07,146.9c-1.46-.52-2.4,2.43-1.05,2.91S351.29,147.34,350.07,146.9Z" style="fill:#263238"></path><path d="M358.41,147.83a10.68,10.68,0,0,1-1-.72c-.4-.29-.75-.47-.93-1a.67.67,0,0,1,.31-.73,1.65,1.65,0,0,1,1.63.27,2.36,2.36,0,0,1,1,1.36A.69.69,0,0,1,358.41,147.83Z" style="fill:#263238"></path><path d="M349.33,145.08a10.77,10.77,0,0,0,1.27,0,2.08,2.08,0,0,0,1.3-.22.66.66,0,0,0,.17-.78,1.62,1.62,0,0,0-1.47-.73,2.38,2.38,0,0,0-1.65.49A.7.7,0,0,0,349.33,145.08Z" style="fill:#263238"></path><path d="M354.76,158.27a1.51,1.51,0,0,1-.93.33,2.61,2.61,0,0,1-.92-.51,0,0,0,0,0-.06,0,1.28,1.28,0,0,0,1,.82,1,1,0,0,0,.95-.62S354.8,158.25,354.76,158.27Z" style="fill:#263238"></path><path d="M354.55,155.24a3.33,3.33,0,0,1-2.48.82,4.56,4.56,0,0,1-1.15-.26l-.21-.09-.19-.09a.23.23,0,0,1-.13-.25h0a.36.36,0,0,1,0-.09h0l0-.08c.18-.72.55-1.78.55-1.78-.3.06-1.79.29-1.66-.08a49.68,49.68,0,0,1,3.84-9.18c.05-.09.2,0,.16.07-.87,2.95-2.26,5.72-3.19,8.67a5.51,5.51,0,0,1,1.61,0c.09,0-.75,2-.8,2.37,0,0,0,0,0,0a4.53,4.53,0,0,0,3.53-.11C354.57,155.09,354.63,155.18,354.55,155.24Z" style="fill:#263238"></path><path d="M351.44,155.55a3.86,3.86,0,0,0,1.18,1.57,1.77,1.77,0,0,0,1,.35c.79,0,1-.67,1-1.28a4.15,4.15,0,0,0-.09-1A5,5,0,0,1,351.44,155.55Z" style="fill:#263238"></path><path d="M352.62,157.12a1.77,1.77,0,0,0,1,.35c.79,0,1-.67,1-1.28A1.79,1.79,0,0,0,352.62,157.12Z" style="fill:#ff98b9"></path><path d="M369.32,153c-.85-.73-1.87-4.3-2.36-5.78s1.11-7.75,1.64-9.6c.16.18.31.37.45.56s.28.39.41.59a9,9,0,0,1,.72,1.29,10.29,10.29,0,0,1,.76,2.49C371.32,144.87,370.6,149,369.32,153Z" style="fill:#263238;opacity:0.2"></path><path d="M355.23,139.27a5,5,0,0,0,3.88,2.93,5.1,5.1,0,0,0,4.62-1.78s.09,0,.06.05a5,5,0,0,1-4.73,2.13,5.13,5.13,0,0,1-3.94-3.28C355.09,139.25,355.2,139.2,355.23,139.27Z" style="fill:#263238"></path><path d="M363.71,129a7.84,7.84,0,0,1,5.27,5.37,5.61,5.61,0,0,1-.52,3.65s-.12,0-.1,0a6.16,6.16,0,0,0-1.18-6.15,8,8,0,0,0-6.46-2.82,5.07,5.07,0,0,0-3.2,1.3c-.08.08-.27,0-.2-.13C358.59,128.65,361.22,128.16,363.71,129Z" style="fill:#263238"></path><path d="M345.84,130.15a6.38,6.38,0,0,1,3.58-2.5c2-.54,3.89.19,5.73.95.05,0,0,.1,0,.08a8.76,8.76,0,0,0-4.92-.89,6.25,6.25,0,0,0-3.65,2.09,6.09,6.09,0,0,0,.24,8,6.18,6.18,0,0,0,4.54,1.88c.07,0,.09.1,0,.11a6.3,6.3,0,0,1-6.49-5.23A6.4,6.4,0,0,1,345.84,130.15Z" style="fill:#263238"></path><path d="M371,145.88s4.09-4.18,2.74-7.7c-.77-2-5-3-5-3a7.8,7.8,0,0,0-3.83-4.56c-3.23-1.81-7.94-1-7.94-1s-2.73-2.85-6.33-2c-5,1.19-6.41,7.89-2.7,11.26,2.6,2.37,7.51.9,7.51.9.38.17,3.72,3.81,7.85,1.09,0,0,1.84,3,4.53,2.06A3.79,3.79,0,0,0,371,145.88Z" style="fill:#263238"></path><path d="M366.47,153.47s3.82-4,5.67-2.56-1.48,7.55-4,8.07a2.46,2.46,0,0,1-3.05-1.8Z" style="fill: rgb(247, 169, 160);"></path><path d="M371.14,152.64s0,.06,0,.07a6.19,6.19,0,0,0-3.75,3.34,1.36,1.36,0,0,1,2.06-.06s0,.1-.06.09a1.5,1.5,0,0,0-1.72.26,7.17,7.17,0,0,0-1,1.21c-.1.14-.36,0-.28-.15l0,0C366.71,155.23,368.82,152.5,371.14,152.64Z" style="fill:#263238"></path></g><g id="freepik--character-1--inject-184"><path d="M82.51,430.12c-3.46-1.87-8.14-2.75-11.8-1-.14.07,0,.27.09.27a54.08,54.08,0,0,1,11.55,1.22A.25.25,0,0,0,82.51,430.12Z" style="fill:#263238"></path><path d="M84.65,432.57c-3.46-1.87-8.14-2.75-11.79-1-.14.07,0,.27.08.27A54.08,54.08,0,0,1,84.49,433,.25.25,0,0,0,84.65,432.57Z" style="fill:#263238"></path><path d="M86.8,435c-3.46-1.87-8.15-2.74-11.8-1-.14.06,0,.26.09.26a54.64,54.64,0,0,1,11.54,1.22A.25.25,0,0,0,86.8,435Z" style="fill:#263238"></path><path d="M88.94,437.48c-3.46-1.87-8.14-2.75-11.8-1-.14.07,0,.27.09.27a54.08,54.08,0,0,1,11.55,1.22A.25.25,0,0,0,88.94,437.48Z" style="fill:#263238"></path><path d="M92,423.78c-.81-2.45-3.79-2.42-5.74-1.62a20.62,20.62,0,0,0-8.37,6.61.1.1,0,0,0,0,.16.48.48,0,0,0,.43.65c3.4-.15,7.06.11,10.31-1.08C90.61,427.8,92.8,426.11,92,423.78Zm-8.53,4.51c-1.67.12-3.34.15-5,.33a62.29,62.29,0,0,1,5-3.76,24.25,24.25,0,0,1,2.63-1.48c1.41-.64,6.43-1.37,4.49,2.46C89.52,428,85.5,428.16,83.51,428.29Z" style="fill:#263238"></path><path d="M68.88,424.81c2.62,2.27,6.13,3.32,9.25,4.67a.49.49,0,0,0,.64-.45.1.1,0,0,0,.09-.14,20.54,20.54,0,0,0-5.48-9.15c-1.54-1.44-4.31-2.53-5.94-.52S67.35,423.49,68.88,424.81Zm-.82-3.16c-.46-4.27,4-1.81,5.07-.7a22.61,22.61,0,0,1,1.93,2.32c1.25,1.67,2.24,3.49,3.32,5.27-1.5-.75-3-1.38-4.57-2.08C72,425.63,68.31,424,68.06,421.65Z" style="fill:#263238"></path><path d="M43.73,424.85c-.23,1.34-.45,2.65-.65,3.91-1.32,8.13-2.11,14.4-1.5,15,1.87,1.78,58,13,60.1,12.79s1.49-6.25-.34-8.43c-1.12-1.32-8.78-7-14.62-11.22l0,0c-3.75-2.72-6.75-4.85-6.75-4.85l11.26-36.4-37.72-7.43S44.09,422.7,43.73,424.85Z" style="fill: rgb(255, 196, 192);"></path><path d="M101.68,456.53c-2.1.25-58.23-11-60.1-12.79-.61-.58.17-6.85,1.5-15,.2-1.26.41-2.57.64-3.91.13-.75,1.37-5.46,2.91-11.26L83.35,421,79.93,432s3,2.13,6.76,4.85l0,0c5.84,4.24,13.51,9.9,14.62,11.22C103.16,450.28,103.77,456.26,101.68,456.53Z" style="fill:#ebebeb"></path><path d="M102.15,456.89c-1.39.17-25.73-4.68-43.37-8.63-4.08-.92-7.81-1.79-10.81-2.53-4.13-1-6.88-1.83-7.27-2.22-.68-.66,3.62-23.67,4.37-26.33l37.32,7.72-2.19,6.9S100,446,101.84,448.27,104.29,456.62,102.15,456.89Z" style="fill:#259F88"></path><path d="M101.27,454.32c-9.58-2.22-48.4-10.24-58-11.71-.08,0-.09.05,0,.07,9.44,2.4,48.33,10.11,58,11.8C101.44,454.51,101.47,454.37,101.27,454.32Z" style="fill:#263238"></path><path d="M91.17,416.07c.4-.19,11.34-47.13,16.33-66.28,7.2-27.63,14.17-72.66,16.26-82a137.6,137.6,0,0,0,8.73-33.64s-45.38,0-45.38,0S75.21,256.87,81.35,273c.56,1.48-7.93,58.34-12.32,67.55-3.79,8-21.09,66.27-21.09,66.27Z" style="fill:#37474f"></path><path d="M90.93,406.45c-1.11-.4-2.3-.6-3.44-.9s-2.42-.62-3.64-.89c-2.43-.55-4.87-1.08-7.3-1.6C71.68,402,66.79,401,61.9,400l-4-.79a22.37,22.37,0,0,0-4.06-.61.08.08,0,0,0,0,.14,20.93,20.93,0,0,0,3.4,1c1.22.3,2.43.58,3.65.85,2.39.54,4.78,1.09,7.18,1.62,4.83,1.05,9.66,2.13,14.51,3.1,1.37.28,2.75.56,4.13.79s2.76.59,4.15.69C91,406.79,91.13,406.52,90.93,406.45Z" style="fill:#263238"></path><path d="M111.89,265.67c-.88,4.72-1.6,9.48-2.38,14.22-.4,2.42-.93,4.81-1.33,7.22s-.78,4.75-1.16,7.12q-2.3,14.32-4.57,28.65-1.14,7.11-2.29,14.21A130.51,130.51,0,0,1,97.3,351c-1.25,4.56-2.72,9.07-4.11,13.59s-2.85,9.26-4.27,13.89c-2.83,9.21-2.43,10.78-5,20.08-.32,1.15-.63,2.31-.95,3.47,0,.13.16.18.2,0,3.14-9.13,2.7-10.7,5.61-19.9s5.83-18.31,8.56-27.52a116.2,116.2,0,0,0,3.2-13.66c.81-4.74,1.52-9.5,2.28-14.25q2.28-14.32,4.57-28.65c.75-4.69,1.57-9.38,2.16-14.1.6-4.88,1.44-9.74,2.17-14.6.18-1.2.35-2.39.51-3.58C112.3,265.52,111.94,265.41,111.89,265.67Z" style="fill:#263238"></path><path d="M150.91,433.25c-3.86-.75-8.59-.18-11.56,2.55-.12.11,0,.27.16.23a53.79,53.79,0,0,1,11.38-2.29A.25.25,0,0,0,150.91,433.25Z" style="fill:#263238"></path><path d="M153.69,435c-3.86-.75-8.59-.19-11.56,2.55-.12.11,0,.27.16.23a54.44,54.44,0,0,1,11.38-2.3A.24.24,0,0,0,153.69,435Z" style="fill:#263238"></path><path d="M156.47,436.65c-3.86-.75-8.59-.19-11.56,2.55-.12.11,0,.27.16.23a54.44,54.44,0,0,1,11.38-2.3A.24.24,0,0,0,156.47,436.65Z" style="fill:#263238"></path><path d="M159.25,438.34c-3.86-.74-8.59-.18-11.56,2.56-.12.1,0,.27.16.23a54.44,54.44,0,0,1,11.38-2.3A.25.25,0,0,0,159.25,438.34Z" style="fill:#263238"></path><path d="M158.11,424.35c-1.51-2.1-4.34-1.18-6,.17a20.67,20.67,0,0,0-6,8.82.1.1,0,0,0,.09.14.48.48,0,0,0,.6.48c3.2-1.16,6.76-2,9.51-4.11C157.94,428.62,159.53,426.34,158.11,424.35Zm-6.79,6.86c-1.56.61-3.14,1.14-4.68,1.81,1.18-1.72,2.28-3.48,3.63-5.08a22.54,22.54,0,0,1,2.06-2.2c1.15-1,5.72-3.23,5,1C157,429.08,153.18,430.48,151.32,431.21Z" style="fill:#263238"></path><path d="M136.32,432.27c3.18,1.38,6.84,1.33,10.22,1.68.36,0,.53-.33.47-.62a.1.1,0,0,0,.05-.16,20.65,20.65,0,0,0-8-7.09c-1.9-.91-4.87-1.12-5.82,1.29S134.46,431.46,136.32,432.27Zm-1.73-2.77c-1.72-3.94,3.25-2.91,4.62-2.19a22,22,0,0,1,2.54,1.64c1.69,1.22,3.19,2.66,4.74,4-1.65-.27-3.31-.4-5-.61C139.54,432.12,135.54,431.67,134.59,429.5Z" style="fill:#263238"></path><path d="M112.19,428.8c0,2.28,1,25.21,1.7,25.66,2.18,1.38,59.44,1.55,61.44.89s.25-6.42-2-8.19c-1.35-1.08-10-5.16-16.52-8.18h0c-4.21-1.94-7.56-3.46-7.56-3.46l.18-6.71.52-30.6H112.13S111.94,414,112.19,428.8Z" style="fill: rgb(255, 196, 192);"></path><path d="M175.33,455.35c-2,.66-59.26.49-61.44-.89-.71-.45-1.67-23.38-1.7-25.66,0-1.52,0-3-.06-4.56h37.38l-.08,4.56-.19,6.71s3.36,1.52,7.57,3.46h0c6.55,3,15.17,7.1,16.52,8.18C175.57,448.93,177.32,454.69,175.33,455.35Z" style="fill:#ebebeb"></path><path d="M176.69,455.82c-1.33.43-26.15.44-44.23,0-4.18-.11-8-.24-11.09-.38-4.25-.21-7.1-.45-7.56-.75-.8-.52-1.94-23.93-1.72-26.69l37.83.2.13,7.21s22.37,10.18,24.65,12S178.73,455.14,176.69,455.82Z" style="fill:#259F88"></path><path d="M175.32,453.47c-9.82-.3-49.46-.59-59.2-.15-.07,0-.07.06,0,.06,9.73.52,49.38.49,59.2.25C175.53,453.63,175.53,453.48,175.32,453.47Z" style="fill:#263238"></path><path d="M105.44,274.71s6.47,63.43,6.57,64.93c0,.59-2.78,78.11-2.78,78.11H152s-1.53-72.64-2.17-81.61c-.08-1-2.84-65.52-15.29-102H87.05s.41,21.45,10.16,37A81,81,0,0,1,105.44,274.71Z" style="fill:#37474f"></path><path d="M149.3,409.74c-1.17-.17-2.38-.14-3.56-.2s-2.49-.11-3.74-.14q-3.74-.07-7.47-.1c-5-.06-10-.05-15,0q-2,0-4.08,0a23.5,23.5,0,0,0-4.11.21c-.07,0-.07.13,0,.14a20.75,20.75,0,0,0,3.53.27c1.24,0,2.49.08,3.74.1,2.45.05,4.91.11,7.36.14,4.94.06,9.89.15,14.84.13,1.4,0,2.8,0,4.2,0s2.82,0,4.2-.15C149.43,410.05,149.51,409.77,149.3,409.74Z" style="fill:#263238"></path><path d="M139.6,343.18c-1.12-22.85-3.52-45.6-6.54-68.27-1.66-12.41-3.6-24.81-7-36.89,0-.05-.09,0-.07,0a296.54,296.54,0,0,1,5.9,33.53c1.42,11.16,2.76,22.34,3.9,33.54,2.3,22.72,3.33,45.53,3.47,68.36.08,12.84-.27,18.9-.62,31.73,0,.13.18.12.19,0C140.75,382.36,140.73,366.06,139.6,343.18Z" style="fill:#263238"></path><path d="M137.32,242.94a.08.08,0,0,0-.15,0c.19,2.7.64,5.65-.56,8.2-1.06,2.25-3.08,3.51-4.93,5-.06.05,0,.14.07.12,2.47-.75,4.93-2.12,5.9-4.64C138.74,248.84,138.15,245.76,137.32,242.94Z" style="fill:#263238"></path><path d="M116.72,273.31a47,47,0,0,0-5.93.2,38.69,38.69,0,0,1-5.8-.1,23.07,23.07,0,0,1-2.88-.48c-1-.23-1.92-.6-2.89-.86a5.15,5.15,0,0,0-2.67.1c-1,.23-2.07.39-3.11.53a30.34,30.34,0,0,1-7.19.18c-.09,0-.13.13,0,.14a30.08,30.08,0,0,0,6.12.65,25.43,25.43,0,0,0,3.15-.29,9.61,9.61,0,0,1,3-.38,26.78,26.78,0,0,1,2.87.95,22.23,22.23,0,0,0,2.92.6,29.57,29.57,0,0,0,6,.18,26,26,0,0,0,6.62-1A.21.21,0,0,0,116.72,273.31Z" style="fill:#263238"></path><path d="M112.12,336.14a.07.07,0,0,0-.06,0h0a.09.09,0,0,0,0,.06l0,.15,0,0h0s0,0,0,0l0-.14A.13.13,0,0,0,112.12,336.14Z" style="fill:#263238"></path><path d="M111,325.22q-.57-6.17-1.22-12.33c-.86-8.22-1.67-16.45-2.52-24.67-.48-4.66-.83-9.37-1.59-14a.1.1,0,0,0-.2,0c.07,4.12.51,8.24.85,12.35s.72,8.23,1.11,12.34c.77,8.22,1.5,16.46,2.47,24.66q.4,3.51.87,7c.3,2.34.71,4.66,1,7,0,.09.16.09.15,0C111.56,333.45,111.36,329.33,111,325.22Z" style="fill:#263238"></path><path d="M204.86,165.45l-18.3,14a4.4,4.4,0,0,1-6.17-.82h0a4.55,4.55,0,0,1-.75-3.8,9.18,9.18,0,1,0-9.24,7.07,4.47,4.47,0,0,1,3.46,1.72h0a4.4,4.4,0,0,1-.82,6.17l-18.29,14-14-18.29a4.41,4.41,0,0,0-6.18-.82h0a4.5,4.5,0,0,0-1.72,3.46,9.18,9.18,0,1,1-7.07-9.24,4.54,4.54,0,0,0,3.8-.75h0a4.41,4.41,0,0,0,.82-6.18l-14-18.29,18.3-14a4.4,4.4,0,0,1,6.17.82h0a4.5,4.5,0,0,1,.75,3.8,9.18,9.18,0,1,0,9.24-7.07,4.47,4.47,0,0,1-3.46-1.72h0a4.4,4.4,0,0,1,.82-6.17l18.3-14,14,18.29a4.4,4.4,0,0,0,6.17.82h0a4.47,4.47,0,0,0,1.72-3.46,9.17,9.17,0,1,1,7.07,9.24,4.54,4.54,0,0,0-3.8.75h0a4.4,4.4,0,0,0-.82,6.17Z" style="fill:#259F88"></path><path d="M110.09,179.7c.28.9,5.07,6.52,9.24,6,1.35-.17.79-7.61.79-7.61l.09-.56,1.17-7.83-9.46-5.16-1.37-.68s-.18,2.17-.37,4.86c0,.13,0,.25,0,.39s0,.29,0,.43c0,.41-.07.82-.09,1.23s0,.61,0,.94,0,.65,0,1A50.91,50.91,0,0,0,110.09,179.7Z" style="fill: rgb(255, 196, 192);"></path><path d="M110.18,168.75a15.85,15.85,0,0,0,10,8.81l1.17-7.83-9.46-5.16-1.37-.68S110.37,166.06,110.18,168.75Z" style="fill:#263238"></path><path d="M132.32,156.66c2.93,13.58-4.81,17-7.8,17.5-2.68.45-11.78,2.17-16.1-11s1.07-18.86,7.08-20.48S129.39,143.08,132.32,156.66Z" style="fill: rgb(255, 196, 192);"></path><path d="M131,153.87c-.33,0-.64,0-1-.06a1.57,1.57,0,0,1-1-.25.5.5,0,0,1-.08-.6,1.21,1.21,0,0,1,1.15-.45,1.75,1.75,0,0,1,1.21.47A.52.52,0,0,1,131,153.87Z" style="fill:#263238"></path><path d="M122.21,155.63a8.16,8.16,0,0,0,.9-.33,1.56,1.56,0,0,0,.85-.51.48.48,0,0,0-.08-.59,1.23,1.23,0,0,0-1.24-.12,1.86,1.86,0,0,0-1,.79A.53.53,0,0,0,122.21,155.63Z" style="fill:#263238"></path><path d="M124.72,158.73s-.07.05-.06.09c.19.93.24,2-.55,2.47,0,0,0,.06,0,.05C125.13,161,125,159.58,124.72,158.73Z" style="fill:#263238"></path><path d="M123.72,157.89c-1.52.14-1.13,3.17.28,3S125,157.78,123.72,157.89Z" style="fill:#263238"></path><path d="M123.15,158.13c-.24.2-.47.54-.78.61s-.68-.2-1-.47c0,0-.06,0,0,0,.06.58.36,1.15,1,1.16s.92-.56,1-1.17C123.36,158.19,123.25,158,123.15,158.13Z" style="fill:#263238"></path><path d="M129.69,157.56s.08,0,.09.07c.08,1,.33,2,1.22,2.22,0,0,0,.06,0,.06C129.94,159.88,129.62,158.47,129.69,157.56Z" style="fill:#263238"></path><path d="M130.42,156.48c1.49-.3,2,2.72.59,3S129.16,156.73,130.42,156.48Z" style="fill:#263238"></path><path d="M131.08,156.58c.26.12.54.37.83.34s.52-.39.69-.74c0,0,0,0,.05,0,.1.57,0,1.2-.53,1.4s-.93-.25-1.16-.81C130.91,156.7,131,156.53,131.08,156.58Z" style="fill:#263238"></path><path d="M125.63,166c.24.2.49.49.84.49a2.51,2.51,0,0,0,1-.32s.06,0,.05,0a1.28,1.28,0,0,1-1.16.61,1,1,0,0,1-.81-.77C125.52,166,125.59,165.94,125.63,166Z" style="fill:#263238"></path><path d="M129.07,162s.39,1.37.48,2c0,.06-.14.11-.37.16,0,0,0,0,0,0a3.16,3.16,0,0,1-3.21-.74c-.06-.06,0-.14.08-.11a4.74,4.74,0,0,0,3,.42c0-.19-.74-2.33-.64-2.35a6.12,6.12,0,0,1,1.55.13c-.73-2.88-1.91-5.62-2.59-8.5,0-.1.12-.16.16-.07a47.4,47.4,0,0,1,3.18,9C130.78,162.42,129.35,162.11,129.07,162Z" style="fill:#263238"></path><path d="M129.06,163.73a3.83,3.83,0,0,1-1.2,1.55,1.77,1.77,0,0,1-1,.33c-.79,0-1-.68-1-1.3a3.83,3.83,0,0,1,.1-1A5,5,0,0,0,129.06,163.73Z" style="fill:#263238"></path><path d="M127.86,165.28a1.77,1.77,0,0,1-1,.33c-.79,0-1-.68-1-1.3A1.82,1.82,0,0,1,127.86,165.28Z" style="fill:#ff98b9"></path><path d="M108.55,162.42c1.49-.34,4.72-5.11,3.64-12.38,0,0,.52,6.59.18,7.63s1.8-2.68,1-8.56a23.88,23.88,0,0,0,6.51,2.13c2.88.31,4.57,0,4.73-.22s-4.1-.84-5.41-1.93c0,0,7.9,2.2,11.33,1.9.39,0-.47-8.16-6.26-10.71s-13.47,2.5-15.34,5c0,0-2.56.8-4.76,5.14S107,162.78,108.55,162.42Z" style="fill:#263238"></path><path d="M135.64,221.47l4.18,22.37s-49.54.7-61.17-.12c0,0,12.16-47.38,24.67-61,6.26-6.79,13.6-6.29,18.28-1.54,1.19,1.2,15.32,19.88,16.81,27C139.71,214.54,135.64,221.47,135.64,221.47Z" style="fill:#dbdbdb"></path><path d="M114,185.31a7.32,7.32,0,0,1-.62,2,7.47,7.47,0,0,1-1.11,1.82,7.31,7.31,0,0,1,.61-2A7.51,7.51,0,0,1,114,185.31Zm-8.22,28.25a7.67,7.67,0,0,0-.62,2,7.51,7.51,0,0,0,1.12-1.82,7.79,7.79,0,0,0,.62-2A7.51,7.51,0,0,0,105.82,213.56Zm-6.74,28a7.41,7.41,0,0,0-.61,2,8.46,8.46,0,0,0,1.73-3.86A7.51,7.51,0,0,0,99.08,241.59Zm29-34.51a7.41,7.41,0,0,0-.61,2,8.36,8.36,0,0,0,1.73-3.85A7.27,7.27,0,0,0,128,207.08Zm-14.24,30.8a7.43,7.43,0,0,0-.62,2,7.27,7.27,0,0,0,1.12-1.81,7.79,7.79,0,0,0,.62-2A7.27,7.27,0,0,0,113.79,237.88ZM85,224.53a7.31,7.31,0,0,0-.61,2,8.46,8.46,0,0,0,1.73-3.86A7.51,7.51,0,0,0,85,224.53Zm8.2-22a7.41,7.41,0,0,0-.61,2,7.23,7.23,0,0,0,1.11-1.81,7.43,7.43,0,0,0,.62-2A7.27,7.27,0,0,0,93.24,202.51Zm26.7-6.51a7.79,7.79,0,0,0-2-.62,7.45,7.45,0,0,0,1.81,1.12,7.74,7.74,0,0,0,2.05.62A7.51,7.51,0,0,0,119.94,196Zm6,23.28a7.32,7.32,0,0,0-2-.62,7.51,7.51,0,0,0,1.82,1.12,7.31,7.31,0,0,0,2,.61A7.79,7.79,0,0,0,125.91,219.28ZM99,223.52a7.31,7.31,0,0,0-2-.61A7.47,7.47,0,0,0,98.8,224a7.32,7.32,0,0,0,2,.62A7.51,7.51,0,0,0,99,223.52Zm37.6-11.41a7.79,7.79,0,0,0,1,1.88,7.53,7.53,0,0,0-.49-2.08,8.15,8.15,0,0,0-1-1.88A7.53,7.53,0,0,0,136.62,212.11Zm-.53,26.83a7.44,7.44,0,0,0,1,1.88,7.54,7.54,0,0,0-.49-2.07,7.44,7.44,0,0,0-1-1.88A7.46,7.46,0,0,0,136.09,238.94Zm-30.65-39.19a7.4,7.4,0,0,0,1,1.88,7.2,7.2,0,0,0-.49-2.07,7.44,7.44,0,0,0-1-1.88A7.47,7.47,0,0,0,105.44,199.75Zm9.48,24a7.44,7.44,0,0,0,1,1.88,7.54,7.54,0,0,0-.49-2.07,7.44,7.44,0,0,0-1-1.88A7.46,7.46,0,0,0,114.92,223.78Zm-25.18,10a7.79,7.79,0,0,0,1,1.88,7.53,7.53,0,0,0-.49-2.08,7.79,7.79,0,0,0-1-1.88A7.53,7.53,0,0,0,89.74,233.81Zm17.44-54.28-.43.28a6.29,6.29,0,0,0,.72,1.19A6.49,6.49,0,0,0,107.18,179.53Zm-7.43,11.1a7.44,7.44,0,0,0,1.88-1,7.54,7.54,0,0,0-2.07.49,7.44,7.44,0,0,0-1.88,1A7.54,7.54,0,0,0,99.75,190.63Zm26.05,41.82a7.44,7.44,0,0,0,1.88-1,7.54,7.54,0,0,0-2.07.49,7.44,7.44,0,0,0-1.88,1A7.54,7.54,0,0,0,125.8,232.45Zm-34-17.76a7.13,7.13,0,0,0,1.88-1,7.47,7.47,0,0,0-2.07.5,7.13,7.13,0,0,0-1.88,1A7.55,7.55,0,0,0,91.79,214.69Zm38.68-21.35-.17.06a7.44,7.44,0,0,0-1.88,1,7.92,7.92,0,0,0,2.07-.49l.29-.12ZM105,232.45a7.44,7.44,0,0,0,1.88-1,8.2,8.2,0,0,0-4,1.5A7.54,7.54,0,0,0,105,232.45Zm-22.49,8.63a7.79,7.79,0,0,0,1.88-1,8.1,8.1,0,0,0-4,1.5A7.54,7.54,0,0,0,82.55,241.08Zm32.85-34.71a7.79,7.79,0,0,0,1.88-1,7.53,7.53,0,0,0-2.08.49,7.79,7.79,0,0,0-1.88,1A7.53,7.53,0,0,0,115.4,206.37Z" style="fill:#c7c7c7"></path><path d="M118,191.86c7.55,5.09,36.76,19.28,44.51,15.38,12.15-6.12,26.46-20.62,32.87-26.36,3.49-3.12-19.55-21.93-22.17-17.38-3.4,5.91-18.66,19.07-20.44,20.76s-19.21-1.63-31.92-3.34C110.26,179.5,108.45,185.42,118,191.86Z" style="fill: rgb(255, 196, 192);"></path><path d="M196,142.32a3.93,3.93,0,0,1,2.29,3.86,5.82,5.82,0,0,1,3.91.72c2,1.3.86,5,.86,5a7.18,7.18,0,0,1,4,1.4c1.81,1.45,1.18,5.39,1.18,5.39A6.35,6.35,0,0,1,211,162.2c1.09,3.91-3.08,8.49-5.7,11.43s-12.81,8.83-14.64,10.15l-19.31-14.85s1.71-12.72,11.87-21.37C186.18,145,193.13,141.15,196,142.32Z" style="fill: rgb(255, 196, 192);"></path><path d="M197.85,146.05c-3.85,1.93-6.91,4.9-10.15,7.69-.07.07,0,.18.1.12,3.18-2.82,6.88-5,10.17-7.64A.1.1,0,0,0,197.85,146.05Z" style="fill:#263238"></path><path d="M202.74,151.79a11,11,0,0,0-2.26,1.88c-.76.72-1.49,1.45-2.22,2.19-1.46,1.49-2.89,3-4.27,4.58-.06.06,0,.18.1.11q2.19-2.24,4.45-4.36c.76-.71,1.53-1.42,2.3-2.11a12.79,12.79,0,0,0,2.08-2.08A.14.14,0,0,0,202.74,151.79Z" style="fill:#263238"></path><path d="M208.15,158.8a7.89,7.89,0,0,0-1.94,1.8c-.65.7-1.31,1.38-2,2.07-1.31,1.37-2.63,2.74-4,4.06-.07.07,0,.18.1.11,1.39-1.34,2.8-2.65,4.18-4l2-2a7.3,7.3,0,0,0,1.67-2S208.19,158.79,208.15,158.8Z" style="fill:#263238"></path><path d="M157.87,178.7l17.86,23s-10.55,7.51-15.32,7.44-29-7.18-41.68-16-7.82-13.52,2.65-12.35S151.26,184,152,183.78,157.87,178.7,157.87,178.7Z" style="fill:#dbdbdb"></path><path d="M114,185.31a7.41,7.41,0,0,1-.61,2,8,8,0,0,1-.4.77,4,4,0,0,1-.33-.42c.07-.2.15-.39.23-.58A7.73,7.73,0,0,1,114,185.31Zm28.29,3a7.41,7.41,0,0,0-.61,2,8.1,8.1,0,0,0,1.73-3.85A7.57,7.57,0,0,0,142.33,188.33Zm16.21-5.43a7.31,7.31,0,0,0-.61,2,7.51,7.51,0,0,0,1.12-1.82,7.31,7.31,0,0,0,.61-2A7.83,7.83,0,0,0,158.54,182.9Zm-16.12,15.87a7.41,7.41,0,0,0-2-.61,7.23,7.23,0,0,0,1.81,1.11,7.43,7.43,0,0,0,2,.62A7.27,7.27,0,0,0,142.42,198.77Zm24.43-1.19a7.79,7.79,0,0,0-2-.62,7.27,7.27,0,0,0,1.81,1.12,7.79,7.79,0,0,0,2,.62A7.45,7.45,0,0,0,166.85,197.58Zm-38.5-15.4c-.1-.24-.2-.48-.31-.72l-.51-.06a9.24,9.24,0,0,0,.31,1,7.75,7.75,0,0,0,1,1.88A7.18,7.18,0,0,0,128.35,182.18Zm29.44,22.54a7.46,7.46,0,0,0,1,1.88,7.54,7.54,0,0,0-.5-2.08,7.46,7.46,0,0,0-1-1.88A7.54,7.54,0,0,0,157.79,204.72ZM132,193a8.08,8.08,0,0,0-3.6,1.45,7.61,7.61,0,0,0,2.08-.49,8.09,8.09,0,0,0,1.58-.8Zm21.86-.26a7.46,7.46,0,0,0,1.88-1,7.54,7.54,0,0,0-2.08.5,7.75,7.75,0,0,0-1.88,1A7.18,7.18,0,0,0,153.87,192.7Z" style="fill:#c7c7c7"></path><path d="M170.2,202.71c-4.69-6.53-9.44-13.08-14.75-19.13,0-.06-.13,0-.09.08,4.48,6.68,9.6,12.93,14.71,19.14A.08.08,0,0,0,170.2,202.71Z" style="fill:#263238"></path><path d="M135.61,201.7c-4.28-1.92-8.51-4-12.83-5.8,0,0-.09,0,0,.07a55,55,0,0,0,5.19,2.77c-.73-.2-1.45-.4-2.19-.56a.05.05,0,0,0,0,.1,11.86,11.86,0,0,0,2,.65l1.11.22c2.21,1,4.46,1.89,6.75,2.7C135.63,201.88,135.69,201.74,135.61,201.7Z" style="fill:#263238"></path><path d="M109,145.3c-5.32,2.38-10.86,7.69-12.42,27s1.42,33.46,7.1,36.82,18,1.59,24.65-3.48c0,0-13.62-14.44-15.61-35.61-.63-6.77,3.5-17.37.87-22.29Z" style="fill:#263238"></path><path d="M129.09,204.63c-1-1.51-1.92-3.09-2.89-4.63s-1.9-3-2.82-4.53a96.4,96.4,0,0,1-5.1-9.5A54.92,54.92,0,0,1,113,165.28c-.15-4.31.33-8.55.58-12.85a.07.07,0,0,0-.14,0c-1.27,7.43-1.8,15.07-.11,22.47a66.88,66.88,0,0,0,8.48,19.75c1,1.72,2.15,3.4,3.31,5.05s2.53,3.34,3.79,5C129,204.79,129.14,204.72,129.09,204.63Z" style="fill:#263238"></path><path d="M103.44,150.92c0-.07-.07-.16-.13-.09-4.77,5.86-6.7,13.5-7.94,20.81a61.85,61.85,0,0,0,.52,24.73,36.88,36.88,0,0,0,2,6.14,36.45,36.45,0,0,0,3.14,5.41c.06.09.19,0,.12-.1a18,18,0,0,1-2.73-5.14A39.75,39.75,0,0,1,97,197.4a61.9,61.9,0,0,1-1.44-12.06,80.1,80.1,0,0,1,2.74-23.27A34.89,34.89,0,0,1,103.44,150.92Z" style="fill:#263238"></path><path d="M98.63,200.85a52.07,52.07,0,0,1-2-5.38,55.16,55.16,0,0,1-2.29-11.16,50.22,50.22,0,0,1,2.92-22.2,55.94,55.94,0,0,1,5.83-11.33c0-.06,0-.14-.1-.08a47.87,47.87,0,0,0-7.47,43.63,48,48,0,0,0,2.41,5.9c1,2,2.22,3.89,3.32,5.86a.08.08,0,0,0,.13-.09A29.11,29.11,0,0,1,98.63,200.85Z" style="fill:#263238"></path><path d="M113.56,161.65s-3.41-4-5.27-2.79,1,7.31,3.35,8a2.35,2.35,0,0,0,3-1.55Z" style="fill: rgb(255, 196, 192);"></path><path d="M109.14,160.58a0,0,0,0,0,0,.06,5.92,5.92,0,0,1,3.39,3.42,1.3,1.3,0,0,0-2-.18.05.05,0,0,0,.05.09,1.44,1.44,0,0,1,1.63.35,6.59,6.59,0,0,1,.87,1.22c.09.13.34,0,.27-.13v0C113.23,163.32,111.37,160.58,109.14,160.58Z" style="fill:#263238"></path></g></svg>