<svg width="100" height="100" viewBox="0 0 100 100" fill="none" xmlns="http://www.w3.org/2000/svg">
<rect width="100" height="100" fill="#FFFBED"/>
<path d="M19.9101 36.06C19.4781 36.06 19.0941 36 18.7581 35.88C18.4301 35.752 18.1661 35.54 17.9661 35.244C17.7741 34.94 17.6661 34.52 17.6421 33.984L17.4501 29.808H18.4221L18.6141 33.768C18.6381 34.144 18.7061 34.428 18.8181 34.62C18.9301 34.804 19.0861 34.928 19.2861 34.992C19.4941 35.048 19.7421 35.076 20.0301 35.076C20.1981 35.076 20.3181 35.124 20.3901 35.22C20.4701 35.308 20.5101 35.416 20.5101 35.544C20.5101 35.672 20.4541 35.792 20.3421 35.904C20.2301 36.008 20.0861 36.06 19.9101 36.06ZM18.0981 34.74C17.6421 34.884 17.1981 34.956 16.7661 34.956C16.3341 34.956 15.9421 34.892 15.5901 34.764C15.2381 34.636 14.9581 34.452 14.7501 34.212C14.5421 33.964 14.4381 33.668 14.4381 33.324C14.4381 32.988 14.5221 32.672 14.6901 32.376C14.8661 32.08 15.1021 31.816 15.3981 31.584C15.7021 31.352 16.0501 31.16 16.4421 31.008C16.8421 30.848 17.2661 30.74 17.7141 30.684L17.8821 31.692C17.4821 31.708 17.1261 31.764 16.8141 31.86C16.5101 31.948 16.2501 32.064 16.0341 32.208C15.8261 32.352 15.6661 32.508 15.5541 32.676C15.4421 32.844 15.3861 33.008 15.3861 33.168C15.3861 33.344 15.4501 33.488 15.5781 33.6C15.7061 33.712 15.8701 33.8 16.0701 33.864C16.2701 33.92 16.4901 33.956 16.7301 33.972C16.9701 33.98 17.2021 33.972 17.4261 33.948C17.6501 33.916 17.8421 33.872 18.0021 33.816L18.0981 34.74ZM17.8461 28.428C17.6781 28.428 17.5341 28.372 17.4141 28.26C17.3021 28.14 17.2461 28 17.2461 27.84C17.2461 27.68 17.3021 27.54 17.4141 27.42C17.5341 27.3 17.6781 27.24 17.8461 27.24C18.0061 27.24 18.1421 27.3 18.2541 27.42C18.3741 27.54 18.4341 27.68 18.4341 27.84C18.4341 28 18.3741 28.14 18.2541 28.26C18.1421 28.372 18.0061 28.428 17.8461 28.428ZM16.2021 28.428C16.0341 28.428 15.8901 28.372 15.7701 28.26C15.6581 28.14 15.6021 28 15.6021 27.84C15.6021 27.68 15.6581 27.54 15.7701 27.42C15.8901 27.3 16.0341 27.24 16.2021 27.24C16.3621 27.24 16.4981 27.3 16.6101 27.42C16.7301 27.54 16.7901 27.68 16.7901 27.84C16.7901 28 16.7301 28.14 16.6101 28.26C16.4981 28.372 16.3621 28.428 16.2021 28.428ZM19.9141 36.06L20.0341 35.076C20.2901 35.076 20.4981 35.06 20.6581 35.028C20.8181 34.988 20.9501 34.896 21.0541 34.752C21.1661 34.6 21.2701 34.364 21.3661 34.044C21.4621 33.724 21.5741 33.276 21.7021 32.7L22.6021 32.952C22.5541 33.152 22.4981 33.392 22.4341 33.672C22.3701 33.952 22.3381 34.208 22.3381 34.44C22.3381 34.568 22.3701 34.68 22.4341 34.776C22.4981 34.872 22.6061 34.948 22.7581 35.004C22.9181 35.052 23.1301 35.076 23.3941 35.076C23.6341 35.076 23.8301 35.056 23.9821 35.016C24.1341 34.976 24.2581 34.88 24.3541 34.728C24.4581 34.576 24.5501 34.332 24.6301 33.996C24.7101 33.66 24.7941 33.2 24.8821 32.616L25.7941 32.784C25.7701 32.928 25.7421 33.104 25.7101 33.312C25.6781 33.52 25.6461 33.728 25.6141 33.936C25.5901 34.136 25.5781 34.304 25.5781 34.44C25.5781 34.552 25.6021 34.66 25.6501 34.764C25.7061 34.86 25.8101 34.936 25.9621 34.992C26.1221 35.048 26.3581 35.076 26.6701 35.076C27.0701 35.076 27.3581 34.992 27.5341 34.824C27.7181 34.656 27.8101 34.4 27.8101 34.056C27.8101 33.872 27.8061 33.68 27.7981 33.48C27.7901 33.272 27.7741 33.044 27.7501 32.796C27.7341 32.54 27.7061 32.248 27.6661 31.92L28.5421 31.86C28.5901 32.508 28.6421 33.04 28.6981 33.456C28.7621 33.872 28.8501 34.2 28.9621 34.44C29.0821 34.672 29.2421 34.836 29.4421 34.932C29.6421 35.028 29.9061 35.076 30.2341 35.076C30.4021 35.076 30.5221 35.124 30.5941 35.22C30.6741 35.308 30.7141 35.416 30.7141 35.544C30.7141 35.672 30.6581 35.792 30.5461 35.904C30.4341 36.008 30.2901 36.06 30.1141 36.06C29.8421 36.06 29.5981 36.024 29.3821 35.952C29.1741 35.872 28.9901 35.768 28.8301 35.64C28.6781 35.504 28.5501 35.352 28.4461 35.184C28.3501 35.008 28.2821 34.824 28.2421 34.632L28.4581 34.704C28.3701 35.064 28.2301 35.344 28.0381 35.544C27.8541 35.736 27.6341 35.872 27.3781 35.952C27.1221 36.024 26.8501 36.06 26.5621 36.06C26.2101 36.06 25.9221 36.016 25.6981 35.928C25.4741 35.84 25.2981 35.708 25.1701 35.532C25.0501 35.348 24.9701 35.116 24.9301 34.836H25.3381C25.1861 35.18 25.0261 35.44 24.8581 35.616C24.6901 35.792 24.4821 35.912 24.2341 35.976C23.9861 36.032 23.6581 36.06 23.2501 36.06C23.0501 36.06 22.8341 36.028 22.6021 35.964C22.3781 35.9 22.1821 35.776 22.0141 35.592C21.8461 35.4 21.7461 35.116 21.7141 34.74L22.0741 34.668C21.9381 35.076 21.7701 35.38 21.5701 35.58C21.3781 35.772 21.1461 35.9 20.8741 35.964C20.6021 36.028 20.2821 36.06 19.9141 36.06ZM30.1094 36.06L30.2294 35.076C30.4854 35.076 30.6934 35.06 30.8534 35.028C31.0134 34.988 31.1454 34.896 31.2494 34.752C31.3614 34.6 31.4654 34.364 31.5614 34.044C31.6574 33.724 31.7694 33.276 31.8974 32.7L32.7974 32.952C32.7654 33.088 32.7294 33.244 32.6894 33.42C32.6494 33.588 32.6134 33.764 32.5814 33.948C32.5494 34.124 32.5334 34.288 32.5334 34.44C32.5334 34.64 32.6094 34.796 32.7614 34.908C32.9134 35.02 33.1894 35.076 33.5894 35.076C33.8294 35.076 34.0254 35.056 34.1774 35.016C34.3294 34.976 34.4534 34.88 34.5494 34.728C34.6534 34.576 34.7454 34.332 34.8254 33.996C34.9054 33.66 34.9894 33.2 35.0774 32.616L35.9894 32.784C35.9654 32.928 35.9374 33.104 35.9054 33.312C35.8734 33.52 35.8414 33.728 35.8094 33.936C35.7854 34.136 35.7734 34.304 35.7734 34.44C35.7734 34.552 35.7974 34.66 35.8454 34.764C35.9014 34.86 36.0054 34.936 36.1574 34.992C36.3174 35.048 36.5534 35.076 36.8654 35.076C37.0974 35.076 37.2974 35.048 37.4654 34.992C37.6414 34.936 37.7734 34.832 37.8614 34.68C37.9574 34.528 38.0054 34.316 38.0054 34.044C38.0054 33.74 37.9334 33.36 37.7894 32.904C37.6534 32.44 37.4974 31.98 37.3214 31.524L38.2934 31.164C38.3974 31.42 38.4934 31.712 38.5814 32.04C38.6774 32.368 38.7574 32.692 38.8214 33.012C38.8854 33.332 38.9174 33.612 38.9174 33.852C38.9174 34.22 38.8694 34.544 38.7734 34.824C38.6774 35.104 38.5414 35.336 38.3654 35.52C38.1894 35.696 37.9734 35.832 37.7174 35.928C37.4614 36.016 37.1734 36.06 36.8534 36.06C36.4774 36.06 36.1694 36.016 35.9294 35.928C35.6894 35.84 35.5054 35.708 35.3774 35.532C35.2494 35.348 35.1654 35.116 35.1254 34.836H35.5334C35.3814 35.18 35.2214 35.44 35.0534 35.616C34.8854 35.792 34.6774 35.912 34.4294 35.976C34.1814 36.032 33.8534 36.06 33.4454 36.06C33.2454 36.06 33.0294 36.028 32.7974 35.964C32.5734 35.9 32.3774 35.776 32.2094 35.592C32.0414 35.4 31.9414 35.116 31.9094 34.74L32.2694 34.668C32.1334 35.076 31.9654 35.38 31.7654 35.58C31.5734 35.772 31.3414 35.9 31.0694 35.964C30.7974 36.028 30.4774 36.06 30.1094 36.06ZM40.2155 38.76L39.9995 37.776C40.4795 37.712 40.9195 37.62 41.3195 37.5C41.7275 37.388 42.0755 37.224 42.3635 37.008C42.6595 36.792 42.8875 36.508 43.0475 36.156C43.2075 35.804 43.2875 35.364 43.2875 34.836C43.2875 34.292 43.1875 33.84 42.9875 33.48C42.7875 33.12 42.5275 32.94 42.2075 32.94C42.0395 32.94 41.8835 33.004 41.7395 33.132C41.5955 33.26 41.4755 33.432 41.3795 33.648C41.2915 33.864 41.2475 34.1 41.2475 34.356C41.2475 34.5 41.2795 34.62 41.3435 34.716C41.4075 34.804 41.4995 34.876 41.6195 34.932C41.7475 34.98 41.9075 35.016 42.0995 35.04C42.2915 35.064 42.5155 35.076 42.7715 35.076H45.3035C45.4715 35.076 45.5915 35.124 45.6635 35.22C45.7435 35.308 45.7835 35.416 45.7835 35.544C45.7835 35.672 45.7275 35.792 45.6155 35.904C45.5035 36.008 45.3595 36.06 45.1835 36.06H42.3155C41.9555 36.06 41.6195 36.008 41.3075 35.904C41.0035 35.8 40.7555 35.64 40.5635 35.424C40.3795 35.2 40.2875 34.908 40.2875 34.548C40.2875 34.212 40.3395 33.892 40.4435 33.588C40.5475 33.276 40.6875 33 40.8635 32.76C41.0475 32.512 41.2595 32.316 41.4995 32.172C41.7475 32.028 42.0155 31.956 42.3035 31.956C42.6715 31.956 42.9995 32.064 43.2875 32.28C43.5755 32.496 43.8035 32.824 43.9715 33.264C44.1395 33.696 44.2235 34.244 44.2235 34.908C44.2235 35.652 44.0715 36.292 43.7675 36.828C43.4715 37.372 43.0235 37.804 42.4235 38.124C41.8315 38.444 41.0955 38.656 40.2155 38.76ZM41.2235 30.708L41.0795 30.06C41.2875 30.012 41.4555 29.972 41.5835 29.94C41.7115 29.908 41.8555 29.872 42.0155 29.832L41.9555 30.084C41.7475 30.02 41.5475 29.884 41.3555 29.676C41.1715 29.468 41.0795 29.232 41.0795 28.968C41.0795 28.728 41.1355 28.528 41.2475 28.368C41.3675 28.2 41.5195 28.076 41.7035 27.996C41.8955 27.916 42.0995 27.876 42.3155 27.876C42.4035 27.876 42.4955 27.884 42.5915 27.9C42.6955 27.916 42.7915 27.94 42.8795 27.972L42.7835 28.572C42.7035 28.556 42.6275 28.54 42.5555 28.524C42.4835 28.508 42.4035 28.5 42.3155 28.5C42.1315 28.5 41.9875 28.54 41.8835 28.62C41.7795 28.692 41.7275 28.796 41.7275 28.932C41.7275 29.1 41.7795 29.244 41.8835 29.364C41.9955 29.484 42.1195 29.58 42.2555 29.652C42.3995 29.716 42.5155 29.748 42.6035 29.748L42.1115 29.796C42.3275 29.74 42.5275 29.684 42.7115 29.628C42.9035 29.564 43.0755 29.504 43.2275 29.448L43.4195 30.06C43.2275 30.132 42.9995 30.208 42.7355 30.288C42.4795 30.368 42.2195 30.444 41.9555 30.516C41.6915 30.588 41.4475 30.652 41.2235 30.708ZM45.1797 36.06L45.2997 35.076C45.5237 35.076 45.6997 35.028 45.8277 34.932C45.9637 34.836 46.0917 34.676 46.2117 34.452C46.3397 34.228 46.4997 33.928 46.6917 33.552C46.8837 33.168 47.0757 32.856 47.2677 32.616C47.4677 32.368 47.6597 32.176 47.8437 32.04C48.0357 31.896 48.2157 31.796 48.3837 31.74C48.5517 31.684 48.7077 31.656 48.8517 31.656C49.1157 31.656 49.3517 31.716 49.5597 31.836C49.7677 31.948 49.9637 32.144 50.1477 32.424C50.3317 32.696 50.5197 33.072 50.7117 33.552C50.8957 33.992 51.0597 34.324 51.2037 34.548C51.3557 34.764 51.5117 34.908 51.6717 34.98C51.8397 35.044 52.0277 35.076 52.2357 35.076C52.4037 35.076 52.5237 35.124 52.5957 35.22C52.6757 35.308 52.7157 35.416 52.7157 35.544C52.7157 35.672 52.6597 35.792 52.5477 35.904C52.4357 36.008 52.2917 36.06 52.1157 36.06C51.8037 36.06 51.5157 36.008 51.2517 35.904C50.9957 35.8 50.7797 35.636 50.6037 35.412L50.7717 35.16C50.6837 35.408 50.5637 35.612 50.4117 35.772C50.2677 35.924 50.1037 36.036 49.9197 36.108C49.7357 36.188 49.5397 36.228 49.3317 36.228C49.0677 36.228 48.7957 36.172 48.5157 36.06C48.2437 35.948 47.9797 35.788 47.7237 35.58C47.4677 35.372 47.2437 35.128 47.0517 34.848C46.8437 35.216 46.6437 35.488 46.4517 35.664C46.2677 35.832 46.0757 35.94 45.8757 35.988C45.6757 36.036 45.4437 36.06 45.1797 36.06ZM47.5077 33.936C47.6437 34.16 47.7877 34.356 47.9397 34.524C48.0997 34.692 48.2597 34.832 48.4197 34.944C48.5797 35.048 48.7357 35.128 48.8877 35.184C49.0477 35.232 49.1917 35.256 49.3197 35.256C49.5997 35.256 49.8037 35.156 49.9317 34.956C50.0677 34.756 50.0637 34.476 49.9197 34.116C49.8477 33.932 49.7717 33.752 49.6917 33.576C49.6197 33.4 49.5397 33.24 49.4517 33.096C49.3637 32.944 49.2637 32.828 49.1517 32.748C49.0397 32.66 48.9157 32.616 48.7797 32.616C48.6597 32.616 48.5317 32.656 48.3957 32.736C48.2677 32.816 48.1277 32.952 47.9757 33.144C47.8317 33.336 47.6757 33.6 47.5077 33.936ZM52.1172 36.06L52.2252 35.076C52.6812 35.076 53.0012 35.032 53.1852 34.944C53.3692 34.856 53.4732 34.7 53.4972 34.476C53.5292 34.252 53.5372 33.94 53.5212 33.54L53.2932 27.432H54.2652L54.5052 33.432C54.5212 33.856 54.5052 34.232 54.4572 34.56C54.4172 34.888 54.3132 35.164 54.1452 35.388C53.9852 35.612 53.7412 35.78 53.4132 35.892C53.0932 36.004 52.6612 36.06 52.1172 36.06ZM56.3384 36L56.0984 27.432H57.0704L57.3104 36H56.3384ZM60.7389 36.012C60.7389 35.724 60.7789 35.404 60.8589 35.052C60.9389 34.7 61.0669 34.312 61.2429 33.888L62.1069 34.224C61.9789 34.56 61.8829 34.868 61.8189 35.148C61.7549 35.428 61.7229 35.688 61.7229 35.928C61.7229 36.368 61.8309 36.724 62.0469 36.996C62.2709 37.276 62.5669 37.48 62.9349 37.608C63.3109 37.736 63.7229 37.8 64.1709 37.8C64.7149 37.8 65.1709 37.74 65.5389 37.62C65.9069 37.508 66.1989 37.352 66.4149 37.152C66.6309 36.952 66.7829 36.724 66.8709 36.468C66.9669 36.22 67.0149 35.96 67.0149 35.688C67.0149 35.336 66.9869 35.004 66.9309 34.692C66.8829 34.38 66.8149 34.076 66.7269 33.78C66.6469 33.476 66.5589 33.168 66.4629 32.856L67.4349 32.592C67.5229 32.896 67.5909 33.144 67.6389 33.336C67.6869 33.52 67.7229 33.668 67.7469 33.78C67.7789 33.892 67.8069 33.992 67.8309 34.08C67.9189 34.376 68.0349 34.596 68.1789 34.74C68.3229 34.876 68.4869 34.968 68.6709 35.016C68.8629 35.056 69.0589 35.076 69.2589 35.076C69.4269 35.076 69.5469 35.124 69.6189 35.22C69.6989 35.308 69.7389 35.416 69.7389 35.544C69.7389 35.672 69.6829 35.792 69.5709 35.904C69.4589 36.008 69.3149 36.06 69.1389 36.06C68.8029 36.06 68.5229 36.004 68.2989 35.892C68.0749 35.772 67.8989 35.624 67.7709 35.448C67.6509 35.272 67.5709 35.088 67.5309 34.896L68.0229 35.508C67.9989 35.916 67.9189 36.312 67.7829 36.696C67.6549 37.088 67.4469 37.44 67.1589 37.752C66.8709 38.072 66.4789 38.324 65.9829 38.508C65.4949 38.692 64.8789 38.784 64.1349 38.784C63.6789 38.784 63.2469 38.728 62.8389 38.616C62.4309 38.504 62.0669 38.332 61.7469 38.1C61.4349 37.876 61.1869 37.588 61.0029 37.236C60.8269 36.892 60.7389 36.484 60.7389 36.012ZM64.3629 31.224C64.1949 31.224 64.0509 31.168 63.9309 31.056C63.8189 30.936 63.7629 30.796 63.7629 30.636C63.7629 30.476 63.8189 30.336 63.9309 30.216C64.0509 30.096 64.1949 30.036 64.3629 30.036C64.5229 30.036 64.6589 30.096 64.7709 30.216C64.8909 30.336 64.9509 30.476 64.9509 30.636C64.9509 30.796 64.8909 30.936 64.7709 31.056C64.6589 31.168 64.5229 31.224 64.3629 31.224ZM69.1445 36.06L69.2645 35.076C69.4885 35.076 69.6645 35.028 69.7925 34.932C69.9285 34.836 70.0565 34.676 70.1765 34.452C70.3045 34.228 70.4645 33.928 70.6565 33.552C70.8485 33.168 71.0405 32.856 71.2325 32.616C71.4325 32.368 71.6245 32.176 71.8085 32.04C72.0005 31.896 72.1805 31.796 72.3485 31.74C72.5165 31.684 72.6725 31.656 72.8165 31.656C73.0805 31.656 73.3165 31.716 73.5245 31.836C73.7325 31.948 73.9285 32.144 74.1125 32.424C74.2965 32.696 74.4845 33.072 74.6765 33.552C74.8605 33.992 75.0245 34.324 75.1685 34.548C75.3205 34.764 75.4765 34.908 75.6365 34.98C75.8045 35.044 75.9925 35.076 76.2005 35.076C76.3685 35.076 76.4885 35.124 76.5605 35.22C76.6405 35.308 76.6805 35.416 76.6805 35.544C76.6805 35.672 76.6245 35.792 76.5125 35.904C76.4005 36.008 76.2565 36.06 76.0805 36.06C75.7685 36.06 75.4805 36.008 75.2165 35.904C74.9605 35.8 74.7445 35.636 74.5685 35.412L74.7365 35.16C74.6485 35.408 74.5285 35.612 74.3765 35.772C74.2325 35.924 74.0685 36.036 73.8845 36.108C73.7005 36.188 73.5045 36.228 73.2965 36.228C73.0325 36.228 72.7605 36.172 72.4805 36.06C72.2085 35.948 71.9445 35.788 71.6885 35.58C71.4325 35.372 71.2085 35.128 71.0165 34.848C70.8085 35.216 70.6085 35.488 70.4165 35.664C70.2325 35.832 70.0405 35.94 69.8405 35.988C69.6405 36.036 69.4085 36.06 69.1445 36.06ZM71.4725 33.936C71.6085 34.16 71.7525 34.356 71.9045 34.524C72.0645 34.692 72.2245 34.832 72.3845 34.944C72.5445 35.048 72.7005 35.128 72.8525 35.184C73.0125 35.232 73.1565 35.256 73.2845 35.256C73.5645 35.256 73.7685 35.156 73.8965 34.956C74.0325 34.756 74.0285 34.476 73.8845 34.116C73.8125 33.932 73.7365 33.752 73.6565 33.576C73.5845 33.4 73.5045 33.24 73.4165 33.096C73.3285 32.944 73.2285 32.828 73.1165 32.748C73.0045 32.66 72.8805 32.616 72.7445 32.616C72.6245 32.616 72.4965 32.656 72.3605 32.736C72.2325 32.816 72.0925 32.952 71.9405 33.144C71.7965 33.336 71.6405 33.6 71.4725 33.936ZM81.89 36.216C81.186 36.216 80.594 36.188 80.114 36.132C79.642 36.084 79.258 36.008 78.962 35.904C78.666 35.8 78.442 35.668 78.29 35.508C78.138 35.348 78.034 35.156 77.978 34.932L78.254 34.836C78.054 35.22 77.838 35.5 77.606 35.676C77.374 35.844 77.13 35.952 76.874 36C76.626 36.04 76.362 36.06 76.082 36.06L76.202 35.076C76.482 35.076 76.71 35.036 76.886 34.956C77.07 34.876 77.218 34.744 77.33 34.56C77.45 34.376 77.554 34.132 77.642 33.828C77.73 33.524 77.826 33.148 77.93 32.7L78.806 32.928C78.758 33.112 78.714 33.288 78.674 33.456C78.634 33.624 78.602 33.772 78.578 33.9C78.562 34.02 78.554 34.116 78.554 34.188C78.554 34.38 78.598 34.544 78.686 34.68C78.774 34.808 78.942 34.916 79.19 35.004C79.438 35.084 79.794 35.144 80.258 35.184C80.73 35.216 81.346 35.232 82.106 35.232C82.634 35.232 83.106 35.2 83.522 35.136C83.938 35.072 84.286 34.976 84.566 34.848C84.854 34.712 85.074 34.548 85.226 34.356C85.378 34.164 85.454 33.944 85.454 33.696C85.454 33.52 85.41 33.348 85.322 33.18C85.234 33.004 85.098 32.856 84.914 32.736C84.73 32.616 84.486 32.556 84.182 32.556C83.798 32.556 83.414 32.656 83.03 32.856C82.654 33.056 82.294 33.308 81.95 33.612C81.614 33.908 81.314 34.212 81.05 34.524C80.786 34.836 80.574 35.108 80.414 35.34L79.37 35.304C79.626 34.888 79.93 34.464 80.282 34.032C80.642 33.592 81.034 33.188 81.458 32.82C81.89 32.444 82.342 32.144 82.814 31.92C83.286 31.688 83.766 31.572 84.254 31.572C84.694 31.572 85.07 31.664 85.382 31.848C85.702 32.024 85.946 32.264 86.114 32.568C86.29 32.872 86.378 33.216 86.378 33.6C86.378 34.072 86.238 34.508 85.958 34.908C85.686 35.3 85.222 35.616 84.566 35.856C83.91 36.096 83.018 36.216 81.89 36.216ZM83.906 30.336C83.738 30.336 83.594 30.28 83.474 30.168C83.362 30.048 83.306 29.908 83.306 29.748C83.306 29.588 83.362 29.448 83.474 29.328C83.594 29.208 83.738 29.148 83.906 29.148C84.066 29.148 84.202 29.208 84.314 29.328C84.434 29.448 84.494 29.588 84.494 29.748C84.494 29.908 84.434 30.048 84.314 30.168C84.202 30.28 84.066 30.336 83.906 30.336Z" fill="#2D2E2E"/>
<path d="M57.5925 52.7914V50.6931L50.5688 49H50.5592L42.1067 50.9968V52.7284L40.2412 53.1414V54.3988L40.8082 54.2929V75.922L49.7043 77L51.296 76.7821V72.0563L53.7818 71.911V76.4837L55.475 76.2799V71.799L57.7001 71.6695V76.013L58.7825 75.8826V54.5799L59.7598 54.7872V53.277L57.5925 52.7914ZM43.5172 51.4999L48.0401 50.4831V51.4587L43.5172 52.4169V51.4999ZM45.4037 58.9479L49.0971 58.5139V59.794L45.4037 60.1668V58.9479ZM41.482 59.4239L44.7825 59.038V60.2455L41.482 60.578V59.4239ZM44.8131 70.567L41.447 70.4296V69.2772L44.8131 69.3613V70.567ZM44.8131 68.4775L41.447 68.4355V67.2831L44.8131 67.2691V68.4775ZM44.8131 66.4282L41.475 66.4816V65.3275L44.8131 65.2199V66.4282ZM44.8131 64.4044L41.51 64.5488V63.3964L44.8122 63.1969L44.8131 64.4044ZM44.8131 62.279L41.51 62.5187V61.3655L44.8122 61.0706L44.8131 62.279ZM44.842 58.219L41.538 58.6425V57.4892L44.8428 57.0098V58.219H44.842ZM44.842 56.2608L41.5371 56.7735V55.6194L44.842 55.0515V56.2608ZM49.0971 70.7271L45.4037 70.5758V69.3569L49.0971 69.447V70.7271ZM49.0971 68.5134L45.4037 68.4679V67.2481L49.0971 67.2315V68.5134ZM49.1312 66.3425L45.4335 66.4002V65.1814L49.1312 65.0598V66.3425ZM49.1312 64.1996L45.4335 64.3624V63.1426L49.1312 62.9195V64.1996ZM49.1312 61.9483L45.4335 62.2186V60.9989L49.1312 60.6681V61.9483ZM49.1653 57.6467L45.465 58.1227V56.903L49.1653 56.3658V57.6467ZM49.1653 55.573L45.465 56.1479V54.9281L49.1653 54.2911V55.573ZM51.9155 50.561L56.5171 51.5953V52.521L51.9155 51.548V50.561ZM58.1061 63.3351V64.5453L54.8362 64.4017V63.1374L58.1061 63.3351ZM54.8677 62.3359V61.0715L58.0807 61.3576V62.5669L54.8677 62.3359ZM54.8388 66.4405V65.1761L58.0518 65.282V66.4912L54.8388 66.4405ZM58.0501 67.3059V68.5151L54.8353 68.5598V67.2954L58.0501 67.3059ZM50.5347 56.2651L54.2543 56.8111V58.086L50.5347 57.6047V56.2651ZM50.5618 58.4789L54.2412 58.9129V60.1886L50.5618 59.8176V58.4789ZM50.5925 60.6349L54.2036 60.9604V62.2361L50.5925 61.9736V60.6349ZM50.6336 62.8583L54.2412 63.0788V64.3545L50.6336 64.1961V62.8583ZM54.215 70.6107L50.722 70.7551V69.4181L54.215 69.335V70.6107ZM54.215 68.5475L50.6476 68.5956V67.2586L54.215 67.2735V68.5475ZM54.2596 66.381L50.6528 66.3224V64.9845L54.2596 65.107V66.381ZM54.2683 56.0595L50.589 55.482V54.1432L54.2683 54.7846V56.0595ZM58.114 70.4874L54.8353 70.6239V69.3595L58.114 69.279V70.4874ZM58.1358 60.6253L54.8362 60.2954V59.0301L58.1358 59.4169V60.6253ZM54.8677 58.212V56.9476L58.0807 57.4158V58.625L54.8677 58.212ZM58.1358 56.686L54.8362 56.1689V54.9045L58.1358 55.4785V56.686Z" fill="#259F88"/>
</svg>
